<?xml version="1.0" encoding="UTF-8" ?>
<svg version="1.1" width="64" height="64" xmlns="http://www.w3.org/2000/svg" shape-rendering="crispEdges">
<rect x="16" y="8" width="12" height="8" fill="#000000" />
<rect x="36" y="8" width="12" height="8" fill="#000000" />
<rect x="8" y="12" width="8" height="4" fill="#000000" />
<rect x="28" y="12" width="8" height="4" fill="#000000" />
<rect x="48" y="12" width="8" height="4" fill="#000000" />
<rect x="4" y="16" width="4" height="44" fill="#000000" />
<rect x="56" y="16" width="4" height="44" fill="#000000" />
<rect x="16" y="20" width="4" height="4" fill="#000000" />
<rect x="24" y="20" width="4" height="4" fill="#000000" />
<rect x="36" y="20" width="4" height="4" fill="#000000" />
<rect x="44" y="20" width="4" height="4" fill="#000000" />
<rect x="16" y="28" width="32" height="4" fill="#000000" />
<rect x="12" y="32" width="4" height="20" fill="#000000" />
<rect x="48" y="32" width="4" height="20" fill="#000000" />
<rect x="16" y="52" width="32" height="4" fill="#000000" />
<rect x="8" y="60" width="48" height="4" fill="#000000" />
</svg>