<?xml version="1.0" encoding="UTF-8" ?>
<svg version="1.1" width="64" height="64" xmlns="http://www.w3.org/2000/svg" shape-rendering="crispEdges">
<rect x="0" y="12" width="12" height="8" fill="#000000" />
<rect x="12" y="16" width="48" height="4" fill="#000000" />
<rect x="4" y="20" width="8" height="4" fill="#000000" />
<rect x="28" y="20" width="4" height="24" fill="#000000" />
<rect x="40" y="20" width="4" height="24" fill="#000000" />
<rect x="60" y="20" width="4" height="8" fill="#000000" />
<rect x="12" y="24" width="4" height="8" fill="#000000" />
<rect x="56" y="24" width="4" height="8" fill="#000000" />
<rect x="16" y="28" width="12" height="4" fill="#000000" />
<rect x="32" y="28" width="8" height="4" fill="#000000" />
<rect x="44" y="28" width="12" height="4" fill="#000000" />
<rect x="16" y="32" width="4" height="8" fill="#000000" />
<rect x="52" y="32" width="4" height="8" fill="#000000" />
<rect x="20" y="36" width="4" height="8" fill="#000000" />
<rect x="48" y="36" width="4" height="8" fill="#000000" />
<rect x="24" y="40" width="4" height="8" fill="#000000" />
<rect x="32" y="40" width="8" height="4" fill="#000000" />
<rect x="44" y="40" width="4" height="8" fill="#000000" />
<rect x="20" y="48" width="4" height="4" fill="#000000" />
<rect x="28" y="48" width="4" height="4" fill="#000000" />
<rect x="40" y="48" width="4" height="4" fill="#000000" />
<rect x="48" y="48" width="4" height="4" fill="#000000" />
<rect x="24" y="52" width="4" height="4" fill="#000000" />
<rect x="44" y="52" width="4" height="4" fill="#000000" />
</svg>