<?xml version="1.0" encoding="UTF-8" ?>
<svg version="1.1" width="40" height="40" xmlns="http://www.w3.org/2000/svg" shape-rendering="crispEdges">
<rect x="0" y="0" width="12" height="4" fill="#CE5A46" />
<rect x="12" y="0" width="8" height="4" fill="#D6AA8D" />
<rect x="20" y="0" width="4" height="4" fill="#CE5A46" />
<rect x="24" y="0" width="12" height="4" fill="#D6AA8D" />
<rect x="0" y="4" width="4" height="32" fill="#CE5A46" />
<rect x="4" y="4" width="8" height="8" fill="#E7E3BB" />
<rect x="12" y="4" width="4" height="8" fill="#CE5A46" />
<rect x="16" y="4" width="8" height="12" fill="#E7E3BB" />
<rect x="24" y="4" width="4" height="4" fill="#CE5A46" />
<rect x="28" y="4" width="4" height="4" fill="#E7E3BB" />
<rect x="32" y="4" width="4" height="4" fill="#CE5A46" />
<rect x="36" y="4" width="4" height="12" fill="#D6AA8D" />
<rect x="24" y="8" width="4" height="4" fill="#E7E3BB" />
<rect x="28" y="8" width="4" height="4" fill="#CE5A46" />
<rect x="32" y="8" width="4" height="4" fill="#E7E3BB" />
<rect x="4" y="12" width="8" height="4" fill="#CE5A46" />
<rect x="12" y="12" width="4" height="8" fill="#E7E3BB" />
<rect x="24" y="12" width="4" height="4" fill="#CE5A46" />
<rect x="28" y="12" width="4" height="24" fill="#E7E3BB" />
<rect x="32" y="12" width="4" height="4" fill="#CE5A46" />
<rect x="4" y="16" width="8" height="20" fill="#E7E3BB" />
<rect x="16" y="16" width="4" height="20" fill="#E7E3BB" />
<rect x="20" y="16" width="4" height="4" fill="#CE5A46" />
<rect x="24" y="16" width="4" height="20" fill="#E7E3BB" />
<rect x="32" y="16" width="4" height="20" fill="#E7E3BB" />
<rect x="36" y="16" width="4" height="4" fill="#CE5A46" />
<rect x="12" y="20" width="4" height="4" fill="#CE5A46" />
<rect x="20" y="20" width="4" height="16" fill="#E7E3BB" />
<rect x="36" y="20" width="4" height="16" fill="#D6AA8D" />
<rect x="12" y="24" width="4" height="4" fill="#E7E3BB" />
<rect x="12" y="28" width="4" height="8" fill="#CE5A46" />
<rect x="4" y="36" width="32" height="4" fill="#D6AA8D" />
</svg>