<?xml version="1.0" encoding="UTF-8" ?>
<svg version="1.1" width="128" height="128" xmlns="http://www.w3.org/2000/svg" shape-rendering="crispEdges">
<rect x="8" y="0" width="112" height="8" fill="#E6BA7E" />
<rect x="4" y="4" width="4" height="120" fill="#E6BA7E" />
<rect x="120" y="4" width="4" height="20" fill="#E6BA7E" />
<rect x="0" y="8" width="4" height="112" fill="#E6BA7E" />
<rect x="8" y="8" width="4" height="4" fill="#E6BA7E" />
<rect x="12" y="8" width="80" height="4" fill="#D26F31" />
<rect x="92" y="8" width="20" height="8" fill="#E8AC99" />
<rect x="112" y="8" width="4" height="4" fill="#D26F31" />
<rect x="116" y="8" width="4" height="4" fill="#E6BA7E" />
<rect x="124" y="8" width="4" height="16" fill="#E6BA7E" />
<rect x="8" y="12" width="32" height="4" fill="#D26F31" />
<rect x="40" y="12" width="16" height="4" fill="#F7F3DB" />
<rect x="56" y="12" width="20" height="4" fill="#E8AC99" />
<rect x="76" y="12" width="12" height="4" fill="#D26F31" />
<rect x="88" y="12" width="4" height="4" fill="#E8AC99" />
<rect x="112" y="12" width="4" height="36" fill="#E8AC99" />
<rect x="116" y="12" width="4" height="16" fill="#D26F31" />
<rect x="8" y="16" width="24" height="4" fill="#D26F31" />
<rect x="32" y="16" width="20" height="12" fill="#F7F3DB" />
<rect x="52" y="16" width="8" height="12" fill="#E8AC99" />
<rect x="60" y="16" width="4" height="8" fill="#F7F3DB" />
<rect x="64" y="16" width="20" height="4" fill="#E8AC99" />
<rect x="84" y="16" width="8" height="4" fill="#F7F3DB" />
<rect x="92" y="16" width="12" height="4" fill="#E8AC99" />
<rect x="104" y="16" width="4" height="20" fill="#F7F3DB" />
<rect x="108" y="16" width="4" height="24" fill="#E8AC99" />
<rect x="8" y="20" width="12" height="4" fill="#D26F31" />
<rect x="20" y="20" width="12" height="8" fill="#F7F3DB" />
<rect x="64" y="20" width="12" height="4" fill="#F7F3DB" />
<rect x="76" y="20" width="16" height="20" fill="#E8AC99" />
<rect x="92" y="20" width="4" height="16" fill="#F7F3DB" />
<rect x="96" y="20" width="8" height="12" fill="#E8AC99" />
<rect x="8" y="24" width="8" height="12" fill="#D26F31" />
<rect x="16" y="24" width="4" height="64" fill="#F7F3DB" />
<rect x="60" y="24" width="4" height="8" fill="#E8AC99" />
<rect x="64" y="24" width="4" height="4" fill="#F7F3DB" />
<rect x="68" y="24" width="8" height="16" fill="#E8AC99" />
<rect x="120" y="24" width="8" height="96" fill="#D59358" />
<rect x="20" y="28" width="8" height="4" fill="#F7F3DB" />
<rect x="28" y="28" width="24" height="4" fill="#E8AC99" />
<rect x="52" y="28" width="4" height="4" fill="#F7F3DB" />
<rect x="56" y="28" width="4" height="4" fill="#E8AC99" />
<rect x="64" y="28" width="4" height="8" fill="#E8AC99" />
<rect x="116" y="28" width="4" height="88" fill="#C35823" />
<rect x="20" y="32" width="4" height="56" fill="#F7F3DB" />
<rect x="24" y="32" width="8" height="4" fill="#E8AC99" />
<rect x="32" y="32" width="8" height="4" fill="#F7F3DB" />
<rect x="40" y="32" width="16" height="4" fill="#E8AC99" />
<rect x="56" y="32" width="8" height="20" fill="#F7F3DB" />
<rect x="96" y="32" width="8" height="8" fill="#D7886B" />
<rect x="8" y="36" width="4" height="80" fill="#D26F31" />
<rect x="12" y="36" width="4" height="56" fill="#F7F3DB" />
<rect x="24" y="36" width="4" height="44" fill="#E8AC99" />
<rect x="28" y="36" width="4" height="20" fill="#F7F3DB" />
<rect x="32" y="36" width="8" height="24" fill="#E8AC99" />
<rect x="40" y="36" width="12" height="4" fill="#F7F3DB" />
<rect x="52" y="36" width="4" height="12" fill="#E8AC99" />
<rect x="64" y="36" width="4" height="24" fill="#F7F3DB" />
<rect x="92" y="36" width="4" height="8" fill="#E5C099" />
<rect x="104" y="36" width="4" height="4" fill="#E5C099" />
<rect x="40" y="40" width="4" height="20" fill="#F7F3DB" />
<rect x="44" y="40" width="4" height="12" fill="#E8AC99" />
<rect x="48" y="40" width="4" height="4" fill="#F7F3DB" />
<rect x="68" y="40" width="4" height="16" fill="#F7F3DB" />
<rect x="72" y="40" width="12" height="4" fill="#E8AC99" />
<rect x="84" y="40" width="4" height="4" fill="#F7F3DB" />
<rect x="88" y="40" width="4" height="8" fill="#D7886B" />
<rect x="96" y="40" width="8" height="4" fill="#E5C099" />
<rect x="104" y="40" width="4" height="4" fill="#D7886B" />
<rect x="108" y="40" width="4" height="4" fill="#F7F3DB" />
<rect x="48" y="44" width="4" height="4" fill="#E8AC99" />
<rect x="72" y="44" width="12" height="12" fill="#F7F3DB" />
<rect x="84" y="44" width="4" height="8" fill="#E5C099" />
<rect x="92" y="44" width="12" height="4" fill="#D7886B" />
<rect x="104" y="44" width="8" height="8" fill="#E8AC99" />
<rect x="48" y="48" width="8" height="20" fill="#D7886B" />
<rect x="88" y="48" width="4" height="8" fill="#E5C099" />
<rect x="92" y="48" width="8" height="4" fill="#D7886B" />
<rect x="100" y="48" width="4" height="4" fill="#E8AC99" />
<rect x="112" y="48" width="4" height="4" fill="#D26F31" />
<rect x="44" y="52" width="4" height="12" fill="#D7886B" />
<rect x="56" y="52" width="4" height="12" fill="#E5C099" />
<rect x="60" y="52" width="4" height="52" fill="#F7F3DB" />
<rect x="84" y="52" width="4" height="4" fill="#F7F3DB" />
<rect x="92" y="52" width="4" height="4" fill="#E5C099" />
<rect x="96" y="52" width="20" height="4" fill="#F7F3DB" />
<rect x="28" y="56" width="4" height="12" fill="#E8AC99" />
<rect x="68" y="56" width="24" height="4" fill="#E8AC99" />
<rect x="92" y="56" width="8" height="4" fill="#F7F3DB" />
<rect x="100" y="56" width="12" height="4" fill="#E8AC99" />
<rect x="112" y="56" width="4" height="4" fill="#F7F3DB" />
<rect x="32" y="60" width="4" height="4" fill="#F7F3DB" />
<rect x="36" y="60" width="8" height="12" fill="#D7886B" />
<rect x="64" y="60" width="8" height="4" fill="#E8AC99" />
<rect x="72" y="60" width="12" height="4" fill="#F7F3DB" />
<rect x="84" y="60" width="8" height="4" fill="#E8AC99" />
<rect x="92" y="60" width="4" height="8" fill="#F7F3DB" />
<rect x="96" y="60" width="8" height="8" fill="#E8AC99" />
<rect x="104" y="60" width="4" height="20" fill="#F7F3DB" />
<rect x="108" y="60" width="8" height="4" fill="#E8AC99" />
<rect x="32" y="64" width="4" height="12" fill="#E5C099" />
<rect x="44" y="64" width="4" height="8" fill="#E5C099" />
<rect x="56" y="64" width="4" height="28" fill="#F7F3DB" />
<rect x="64" y="64" width="4" height="28" fill="#E8AC99" />
<rect x="68" y="64" width="4" height="24" fill="#F7F3DB" />
<rect x="72" y="64" width="8" height="20" fill="#E8AC99" />
<rect x="80" y="64" width="12" height="4" fill="#F7F3DB" />
<rect x="108" y="64" width="4" height="4" fill="#F7F3DB" />
<rect x="112" y="64" width="4" height="4" fill="#E8AC99" />
<rect x="28" y="68" width="4" height="8" fill="#D7886B" />
<rect x="48" y="68" width="4" height="4" fill="#D7886B" />
<rect x="52" y="68" width="4" height="12" fill="#E8AC99" />
<rect x="80" y="68" width="4" height="16" fill="#F7F3DB" />
<rect x="84" y="68" width="4" height="16" fill="#E8AC99" />
<rect x="88" y="68" width="4" height="4" fill="#F7F3DB" />
<rect x="92" y="68" width="4" height="16" fill="#E5C099" />
<rect x="96" y="68" width="4" height="20" fill="#D7886B" />
<rect x="100" y="68" width="4" height="4" fill="#E8AC99" />
<rect x="108" y="68" width="4" height="12" fill="#E8AC99" />
<rect x="112" y="68" width="4" height="12" fill="#F7F3DB" />
<rect x="36" y="72" width="4" height="4" fill="#D7886B" />
<rect x="40" y="72" width="4" height="4" fill="#E5C099" />
<rect x="44" y="72" width="8" height="12" fill="#E8AC99" />
<rect x="88" y="72" width="4" height="12" fill="#D7886B" />
<rect x="100" y="72" width="4" height="12" fill="#D7886B" />
<rect x="28" y="76" width="4" height="8" fill="#E8AC99" />
<rect x="32" y="76" width="4" height="4" fill="#D7886B" />
<rect x="36" y="76" width="4" height="4" fill="#E5C099" />
<rect x="40" y="76" width="4" height="8" fill="#E8AC99" />
<rect x="24" y="80" width="4" height="8" fill="#F7F3DB" />
<rect x="32" y="80" width="8" height="4" fill="#E8AC99" />
<rect x="52" y="80" width="4" height="8" fill="#F7F3DB" />
<rect x="104" y="80" width="4" height="16" fill="#E8AC99" />
<rect x="108" y="80" width="4" height="4" fill="#F7F3DB" />
<rect x="112" y="80" width="4" height="12" fill="#D7886B" />
<rect x="28" y="84" width="24" height="4" fill="#F7F3DB" />
<rect x="72" y="84" width="4" height="4" fill="#E8AC99" />
<rect x="76" y="84" width="12" height="16" fill="#D7886B" />
<rect x="88" y="84" width="4" height="4" fill="#F7F3DB" />
<rect x="92" y="84" width="4" height="4" fill="#D7886B" />
<rect x="100" y="84" width="4" height="12" fill="#E8AC99" />
<rect x="108" y="84" width="4" height="8" fill="#D7886B" />
<rect x="16" y="88" width="40" height="4" fill="#E8AC99" />
<rect x="68" y="88" width="4" height="12" fill="#E5C099" />
<rect x="72" y="88" width="4" height="16" fill="#D7886B" />
<rect x="88" y="88" width="4" height="4" fill="#E5C099" />
<rect x="92" y="88" width="8" height="4" fill="#E8AC99" />
<rect x="12" y="92" width="8" height="12" fill="#E8AC99" />
<rect x="20" y="92" width="28" height="4" fill="#F7F3DB" />
<rect x="48" y="92" width="12" height="24" fill="#E8AC99" />
<rect x="64" y="92" width="4" height="8" fill="#D7886B" />
<rect x="88" y="92" width="4" height="4" fill="#D7886B" />
<rect x="92" y="92" width="4" height="12" fill="#E8AC99" />
<rect x="96" y="92" width="4" height="24" fill="#F7F3DB" />
<rect x="108" y="92" width="4" height="4" fill="#E8AC99" />
<rect x="112" y="92" width="4" height="4" fill="#E5C099" />
<rect x="20" y="96" width="4" height="12" fill="#E8AC99" />
<rect x="24" y="96" width="4" height="8" fill="#F7F3DB" />
<rect x="28" y="96" width="8" height="4" fill="#E8AC99" />
<rect x="36" y="96" width="8" height="4" fill="#F7F3DB" />
<rect x="44" y="96" width="4" height="20" fill="#E8AC99" />
<rect x="88" y="96" width="4" height="12" fill="#E8AC99" />
<rect x="100" y="96" width="16" height="8" fill="#F7F3DB" />
<rect x="28" y="100" width="4" height="4" fill="#E8AC99" />
<rect x="32" y="100" width="4" height="8" fill="#F7F3DB" />
<rect x="36" y="100" width="8" height="4" fill="#E8AC99" />
<rect x="64" y="100" width="4" height="4" fill="#E8AC99" />
<rect x="68" y="100" width="4" height="4" fill="#D7886B" />
<rect x="76" y="100" width="4" height="4" fill="#D7886B" />
<rect x="80" y="100" width="8" height="8" fill="#E8AC99" />
<rect x="12" y="104" width="4" height="16" fill="#D26F31" />
<rect x="16" y="104" width="4" height="4" fill="#E8AC99" />
<rect x="24" y="104" width="4" height="4" fill="#E8AC99" />
<rect x="28" y="104" width="4" height="12" fill="#F7F3DB" />
<rect x="36" y="104" width="4" height="4" fill="#F7F3DB" />
<rect x="40" y="104" width="4" height="8" fill="#E8AC99" />
<rect x="60" y="104" width="4" height="12" fill="#E8AC99" />
<rect x="64" y="104" width="4" height="8" fill="#F7F3DB" />
<rect x="68" y="104" width="12" height="4" fill="#E8AC99" />
<rect x="92" y="104" width="4" height="12" fill="#F7F3DB" />
<rect x="100" y="104" width="12" height="4" fill="#F7F3DB" />
<rect x="112" y="104" width="4" height="8" fill="#D26F31" />
<rect x="16" y="108" width="12" height="4" fill="#F7F3DB" />
<rect x="32" y="108" width="8" height="4" fill="#E8AC99" />
<rect x="68" y="108" width="24" height="4" fill="#F7F3DB" />
<rect x="100" y="108" width="4" height="4" fill="#F7F3DB" />
<rect x="104" y="108" width="8" height="4" fill="#D26F31" />
<rect x="16" y="112" width="4" height="8" fill="#D26F31" />
<rect x="20" y="112" width="8" height="4" fill="#F7F3DB" />
<rect x="32" y="112" width="12" height="4" fill="#F7F3DB" />
<rect x="64" y="112" width="8" height="4" fill="#D26F31" />
<rect x="72" y="112" width="20" height="4" fill="#F7F3DB" />
<rect x="100" y="112" width="4" height="4" fill="#D26F31" />
<rect x="104" y="112" width="12" height="8" fill="#C35823" />
<rect x="8" y="116" width="4" height="12" fill="#E6BA7E" />
<rect x="20" y="116" width="4" height="4" fill="#D26F31" />
<rect x="24" y="116" width="24" height="4" fill="#C35823" />
<rect x="48" y="116" width="12" height="4" fill="#D7886B" />
<rect x="60" y="116" width="44" height="4" fill="#C35823" />
<rect x="116" y="116" width="4" height="12" fill="#D59358" />
<rect x="12" y="120" width="8" height="8" fill="#E6BA7E" />
<rect x="20" y="120" width="96" height="8" fill="#D59358" />
<rect x="120" y="120" width="4" height="4" fill="#D59358" />
</svg>