<?xml version="1.0" encoding="UTF-8" ?>
<svg version="1.1" width="128" height="128" xmlns="http://www.w3.org/2000/svg" shape-rendering="crispEdges">
<rect x="8" y="0" width="112" height="4" fill="#C27B4B" />
<rect x="4" y="4" width="8" height="4" fill="#C27B4B" />
<rect x="12" y="4" width="76" height="4" fill="#CE5A46" />
<rect x="88" y="4" width="12" height="28" fill="#E7E3BB" />
<rect x="100" y="4" width="16" height="4" fill="#CE5A46" />
<rect x="116" y="4" width="8" height="4" fill="#C27B4B" />
<rect x="0" y="8" width="8" height="4" fill="#C27B4B" />
<rect x="8" y="8" width="8" height="4" fill="#CE5A46" />
<rect x="16" y="8" width="64" height="4" fill="#FFA99A" />
<rect x="80" y="8" width="8" height="24" fill="#E7E3BB" />
<rect x="100" y="8" width="4" height="24" fill="#E7E3BB" />
<rect x="104" y="8" width="8" height="4" fill="#FFA99A" />
<rect x="112" y="8" width="8" height="4" fill="#CE5A46" />
<rect x="120" y="8" width="8" height="4" fill="#C27B4B" />
<rect x="0" y="12" width="4" height="108" fill="#C27B4B" />
<rect x="4" y="12" width="8" height="4" fill="#CE5A46" />
<rect x="12" y="12" width="64" height="4" fill="#FFA99A" />
<rect x="76" y="12" width="4" height="8" fill="#E7E3BB" />
<rect x="104" y="12" width="4" height="24" fill="#E7E3BB" />
<rect x="108" y="12" width="8" height="4" fill="#FFA99A" />
<rect x="116" y="12" width="8" height="4" fill="#CE5A46" />
<rect x="124" y="12" width="4" height="12" fill="#C27B4B" />
<rect x="4" y="16" width="4" height="16" fill="#CE5A46" />
<rect x="8" y="16" width="24" height="4" fill="#FFA99A" />
<rect x="32" y="16" width="4" height="32" fill="#E7E3BB" />
<rect x="36" y="16" width="8" height="4" fill="#FFA99A" />
<rect x="44" y="16" width="8" height="12" fill="#60844C" />
<rect x="52" y="16" width="16" height="4" fill="#FFA99A" />
<rect x="68" y="16" width="8" height="16" fill="#FD4545" />
<rect x="108" y="16" width="4" height="20" fill="#E7E3BB" />
<rect x="112" y="16" width="8" height="4" fill="#FFA99A" />
<rect x="120" y="16" width="4" height="8" fill="#CE5A46" />
<rect x="8" y="20" width="12" height="4" fill="#FFA99A" />
<rect x="20" y="20" width="12" height="24" fill="#E7E3BB" />
<rect x="36" y="20" width="4" height="28" fill="#E7E3BB" />
<rect x="40" y="20" width="4" height="4" fill="#60844C" />
<rect x="52" y="20" width="4" height="20" fill="#60844C" />
<rect x="56" y="20" width="8" height="4" fill="#FFA99A" />
<rect x="64" y="20" width="4" height="8" fill="#FD4545" />
<rect x="76" y="20" width="4" height="8" fill="#FD4545" />
<rect x="112" y="20" width="4" height="12" fill="#E7E3BB" />
<rect x="116" y="20" width="4" height="8" fill="#FFA99A" />
<rect x="8" y="24" width="4" height="4" fill="#FFA99A" />
<rect x="12" y="24" width="8" height="4" fill="#E7E3BB" />
<rect x="40" y="24" width="4" height="24" fill="#E7E3BB" />
<rect x="56" y="24" width="4" height="12" fill="#60844C" />
<rect x="60" y="24" width="4" height="44" fill="#FFA99A" />
<rect x="120" y="24" width="4" height="88" fill="#BF4831" />
<rect x="124" y="24" width="4" height="96" fill="#B46235" />
<rect x="8" y="28" width="8" height="16" fill="#FD4545" />
<rect x="16" y="28" width="4" height="4" fill="#E7E3BB" />
<rect x="44" y="28" width="4" height="24" fill="#E7E3BB" />
<rect x="48" y="28" width="4" height="8" fill="#60844C" />
<rect x="64" y="28" width="4" height="20" fill="#FFA99A" />
<rect x="76" y="28" width="4" height="8" fill="#E7E3BB" />
<rect x="116" y="28" width="4" height="68" fill="#ED856C" />
<rect x="4" y="32" width="4" height="8" fill="#FD4545" />
<rect x="16" y="32" width="4" height="8" fill="#FD4545" />
<rect x="68" y="32" width="4" height="12" fill="#FFA99A" />
<rect x="72" y="32" width="4" height="4" fill="#E7E3BB" />
<rect x="80" y="32" width="16" height="4" fill="#60844C" />
<rect x="96" y="32" width="8" height="4" fill="#D6B482" />
<rect x="112" y="32" width="4" height="28" fill="#FFA99A" />
<rect x="48" y="36" width="4" height="12" fill="#E7E3BB" />
<rect x="56" y="36" width="4" height="16" fill="#FFA99A" />
<rect x="72" y="36" width="4" height="4" fill="#FFA99A" />
<rect x="76" y="36" width="16" height="4" fill="#60844C" />
<rect x="92" y="36" width="8" height="4" fill="#596835" />
<rect x="100" y="36" width="8" height="4" fill="#D6B482" />
<rect x="108" y="36" width="4" height="20" fill="#FFA99A" />
<rect x="4" y="40" width="4" height="8" fill="#E7E3BB" />
<rect x="16" y="40" width="4" height="20" fill="#E7E3BB" />
<rect x="52" y="40" width="4" height="8" fill="#E7E3BB" />
<rect x="72" y="40" width="16" height="4" fill="#60844C" />
<rect x="88" y="40" width="8" height="4" fill="#596835" />
<rect x="96" y="40" width="8" height="4" fill="#D6B482" />
<rect x="104" y="40" width="4" height="4" fill="#ED856C" />
<rect x="8" y="44" width="8" height="8" fill="#E7E3BB" />
<rect x="20" y="44" width="4" height="4" fill="#E7E3BB" />
<rect x="24" y="44" width="8" height="12" fill="#60844C" />
<rect x="68" y="44" width="16" height="8" fill="#60844C" />
<rect x="84" y="44" width="8" height="4" fill="#596835" />
<rect x="92" y="44" width="8" height="4" fill="#D6B482" />
<rect x="100" y="44" width="4" height="4" fill="#ED856C" />
<rect x="104" y="44" width="4" height="12" fill="#FFA99A" />
<rect x="4" y="48" width="4" height="68" fill="#CE5A46" />
<rect x="20" y="48" width="4" height="4" fill="#60844C" />
<rect x="32" y="48" width="12" height="12" fill="#60844C" />
<rect x="48" y="48" width="8" height="8" fill="#D6B482" />
<rect x="64" y="48" width="4" height="4" fill="#60844C" />
<rect x="84" y="48" width="16" height="4" fill="#ED856C" />
<rect x="100" y="48" width="4" height="12" fill="#FFA99A" />
<rect x="8" y="52" width="4" height="60" fill="#FFA99A" />
<rect x="12" y="52" width="4" height="4" fill="#E7E3BB" />
<rect x="20" y="52" width="4" height="12" fill="#E7E3BB" />
<rect x="44" y="52" width="4" height="4" fill="#596835" />
<rect x="56" y="52" width="4" height="12" fill="#ED856C" />
<rect x="64" y="52" width="4" height="12" fill="#FFA99A" />
<rect x="68" y="52" width="12" height="4" fill="#60844C" />
<rect x="80" y="52" width="8" height="8" fill="#FFA99A" />
<rect x="88" y="52" width="8" height="4" fill="#ED856C" />
<rect x="96" y="52" width="4" height="16" fill="#FFA99A" />
<rect x="12" y="56" width="4" height="36" fill="#FFA99A" />
<rect x="24" y="56" width="4" height="12" fill="#E7E3BB" />
<rect x="28" y="56" width="4" height="4" fill="#60844C" />
<rect x="44" y="56" width="8" height="4" fill="#D6B482" />
<rect x="52" y="56" width="4" height="12" fill="#ED856C" />
<rect x="68" y="56" width="4" height="4" fill="#FFA99A" />
<rect x="72" y="56" width="8" height="12" fill="#E7E3BB" />
<rect x="88" y="56" width="8" height="8" fill="#FFA99A" />
<rect x="104" y="56" width="8" height="16" fill="#FD4545" />
<rect x="16" y="60" width="4" height="28" fill="#FFA99A" />
<rect x="28" y="60" width="8" height="4" fill="#E7E3BB" />
<rect x="36" y="60" width="12" height="4" fill="#D6B482" />
<rect x="48" y="60" width="4" height="12" fill="#ED856C" />
<rect x="68" y="60" width="4" height="20" fill="#E7E3BB" />
<rect x="80" y="60" width="8" height="8" fill="#E7E3BB" />
<rect x="100" y="60" width="4" height="8" fill="#FD4545" />
<rect x="112" y="60" width="4" height="8" fill="#FD4545" />
<rect x="20" y="64" width="4" height="20" fill="#FFA99A" />
<rect x="28" y="64" width="4" height="4" fill="#E7E3BB" />
<rect x="32" y="64" width="12" height="4" fill="#D6B482" />
<rect x="44" y="64" width="4" height="8" fill="#ED856C" />
<rect x="56" y="64" width="4" height="8" fill="#FFA99A" />
<rect x="64" y="64" width="4" height="28" fill="#E7E3BB" />
<rect x="88" y="64" width="4" height="8" fill="#E7E3BB" />
<rect x="92" y="64" width="4" height="4" fill="#FFA99A" />
<rect x="24" y="68" width="4" height="12" fill="#FFA99A" />
<rect x="28" y="68" width="16" height="8" fill="#ED856C" />
<rect x="52" y="68" width="4" height="28" fill="#FFA99A" />
<rect x="60" y="68" width="4" height="20" fill="#E7E3BB" />
<rect x="72" y="68" width="4" height="4" fill="#E7E3BB" />
<rect x="76" y="68" width="8" height="16" fill="#FD4545" />
<rect x="84" y="68" width="4" height="4" fill="#E7E3BB" />
<rect x="92" y="68" width="4" height="12" fill="#D6B482" />
<rect x="96" y="68" width="4" height="16" fill="#ED856C" />
<rect x="100" y="68" width="4" height="4" fill="#FFA99A" />
<rect x="112" y="68" width="4" height="12" fill="#FFA99A" />
<rect x="44" y="72" width="8" height="16" fill="#FFA99A" />
<rect x="56" y="72" width="4" height="8" fill="#E7E3BB" />
<rect x="72" y="72" width="4" height="8" fill="#FD4545" />
<rect x="84" y="72" width="4" height="8" fill="#FD4545" />
<rect x="88" y="72" width="4" height="12" fill="#D6B482" />
<rect x="100" y="72" width="4" height="12" fill="#ED856C" />
<rect x="104" y="72" width="8" height="12" fill="#FFA99A" />
<rect x="28" y="76" width="4" height="4" fill="#FFA99A" />
<rect x="32" y="76" width="8" height="4" fill="#D6B482" />
<rect x="40" y="76" width="4" height="4" fill="#FFA99A" />
<rect x="24" y="80" width="20" height="8" fill="#E7E3BB" />
<rect x="56" y="80" width="4" height="16" fill="#FFA99A" />
<rect x="68" y="80" width="8" height="4" fill="#60844C" />
<rect x="84" y="80" width="4" height="4" fill="#60844C" />
<rect x="92" y="80" width="4" height="4" fill="#ED856C" />
<rect x="112" y="80" width="4" height="12" fill="#ED856C" />
<rect x="20" y="84" width="4" height="36" fill="#E7E3BB" />
<rect x="68" y="84" width="4" height="4" fill="#E7E3BB" />
<rect x="72" y="84" width="4" height="4" fill="#60844C" />
<rect x="76" y="84" width="12" height="8" fill="#596835" />
<rect x="88" y="84" width="4" height="4" fill="#60844C" />
<rect x="92" y="84" width="8" height="4" fill="#596835" />
<rect x="100" y="84" width="8" height="4" fill="#FFA99A" />
<rect x="108" y="84" width="4" height="4" fill="#ED856C" />
<rect x="16" y="88" width="4" height="32" fill="#E7E3BB" />
<rect x="24" y="88" width="12" height="4" fill="#E7E3BB" />
<rect x="36" y="88" width="8" height="16" fill="#FD4545" />
<rect x="44" y="88" width="4" height="4" fill="#E7E3BB" />
<rect x="48" y="88" width="4" height="4" fill="#FFA99A" />
<rect x="60" y="88" width="4" height="8" fill="#FFA99A" />
<rect x="68" y="88" width="8" height="8" fill="#D6B482" />
<rect x="88" y="88" width="4" height="8" fill="#596835" />
<rect x="92" y="88" width="12" height="4" fill="#60844C" />
<rect x="104" y="88" width="4" height="4" fill="#FFA99A" />
<rect x="108" y="88" width="4" height="4" fill="#D6B482" />
<rect x="12" y="92" width="4" height="24" fill="#E7E3BB" />
<rect x="24" y="92" width="8" height="12" fill="#E7E3BB" />
<rect x="32" y="92" width="4" height="8" fill="#FD4545" />
<rect x="44" y="92" width="4" height="8" fill="#FD4545" />
<rect x="48" y="92" width="4" height="20" fill="#60844C" />
<rect x="64" y="92" width="4" height="8" fill="#ED856C" />
<rect x="76" y="92" width="4" height="4" fill="#D6B482" />
<rect x="80" y="92" width="8" height="4" fill="#596835" />
<rect x="92" y="92" width="8" height="4" fill="#60844C" />
<rect x="100" y="92" width="4" height="4" fill="#FFA99A" />
<rect x="104" y="92" width="8" height="8" fill="#E7E3BB" />
<rect x="112" y="92" width="4" height="4" fill="#D6B482" />
<rect x="52" y="96" width="12" height="12" fill="#60844C" />
<rect x="68" y="96" width="20" height="4" fill="#ED856C" />
<rect x="88" y="96" width="4" height="4" fill="#60844C" />
<rect x="92" y="96" width="8" height="4" fill="#FFA99A" />
<rect x="100" y="96" width="4" height="4" fill="#E7E3BB" />
<rect x="112" y="96" width="4" height="8" fill="#E7E3BB" />
<rect x="116" y="96" width="4" height="8" fill="#D6B482" />
<rect x="32" y="100" width="4" height="12" fill="#60844C" />
<rect x="44" y="100" width="4" height="12" fill="#60844C" />
<rect x="64" y="100" width="4" height="4" fill="#60844C" />
<rect x="68" y="100" width="12" height="4" fill="#ED856C" />
<rect x="80" y="100" width="8" height="16" fill="#FD4545" />
<rect x="88" y="100" width="8" height="4" fill="#FFA99A" />
<rect x="96" y="100" width="12" height="12" fill="#60844C" />
<rect x="108" y="100" width="4" height="4" fill="#E7E3BB" />
<rect x="24" y="104" width="4" height="12" fill="#E7E3BB" />
<rect x="28" y="104" width="4" height="4" fill="#60844C" />
<rect x="36" y="104" width="8" height="8" fill="#60844C" />
<rect x="64" y="104" width="12" height="12" fill="#FFA99A" />
<rect x="76" y="104" width="4" height="8" fill="#FD4545" />
<rect x="88" y="104" width="4" height="8" fill="#FD4545" />
<rect x="92" y="104" width="4" height="4" fill="#60844C" />
<rect x="108" y="104" width="8" height="8" fill="#60844C" />
<rect x="116" y="104" width="4" height="4" fill="#ED856C" />
<rect x="28" y="108" width="4" height="8" fill="#E7E3BB" />
<rect x="52" y="108" width="4" height="4" fill="#60844C" />
<rect x="56" y="108" width="8" height="8" fill="#FFA99A" />
<rect x="92" y="108" width="4" height="8" fill="#E7E3BB" />
<rect x="116" y="108" width="4" height="12" fill="#596835" />
<rect x="8" y="112" width="4" height="8" fill="#CE5A46" />
<rect x="32" y="112" width="16" height="4" fill="#E7E3BB" />
<rect x="48" y="112" width="8" height="4" fill="#FFA99A" />
<rect x="76" y="112" width="4" height="4" fill="#FFA99A" />
<rect x="88" y="112" width="4" height="4" fill="#FFA99A" />
<rect x="96" y="112" width="4" height="4" fill="#E7E3BB" />
<rect x="100" y="112" width="4" height="4" fill="#60844C" />
<rect x="104" y="112" width="12" height="8" fill="#596835" />
<rect x="120" y="112" width="4" height="4" fill="#596835" />
<rect x="4" y="116" width="4" height="8" fill="#C27B4B" />
<rect x="12" y="116" width="4" height="8" fill="#CE5A46" />
<rect x="24" y="116" width="20" height="4" fill="#D6B482" />
<rect x="44" y="116" width="52" height="4" fill="#ED856C" />
<rect x="96" y="116" width="8" height="4" fill="#D6B482" />
<rect x="120" y="116" width="4" height="8" fill="#B46235" />
<rect x="8" y="120" width="4" height="8" fill="#C27B4B" />
<rect x="16" y="120" width="4" height="4" fill="#CE5A46" />
<rect x="20" y="120" width="4" height="4" fill="#BF4831" />
<rect x="24" y="120" width="16" height="4" fill="#D6B482" />
<rect x="40" y="120" width="72" height="4" fill="#BF4831" />
<rect x="112" y="120" width="8" height="8" fill="#B46235" />
<rect x="12" y="124" width="8" height="4" fill="#C27B4B" />
<rect x="20" y="124" width="92" height="4" fill="#B46235" />
</svg>