<?xml version="1.0" encoding="UTF-8" ?>
<svg version="1.1" width="128" height="128" xmlns="http://www.w3.org/2000/svg" shape-rendering="crispEdges">
<rect x="12" y="12" width="56" height="8" fill="#DECB72" />
<rect x="68" y="12" width="4" height="8" fill="#D1BE62" />
<rect x="72" y="12" width="40" height="4" fill="#C7B457" opacity="0.600000" />
<rect x="112" y="12" width="4" height="4" fill="#C7B457" opacity="0.839216" />
<rect x="116" y="12" width="4" height="8" fill="#C7B457" opacity="0.600000" />
<rect x="72" y="16" width="36" height="4" fill="#DECB72" />
<rect x="108" y="16" width="4" height="4" fill="#D1BE62" />
<rect x="112" y="16" width="4" height="4" fill="#C7B457" opacity="0.937255" />
<rect x="12" y="20" width="4" height="48" fill="#DECB72" />
<rect x="16" y="20" width="8" height="32" fill="#FFFFFF" />
<rect x="24" y="20" width="4" height="32" fill="#FFFBEA" />
<rect x="28" y="20" width="80" height="8" fill="#FFED9A" />
<rect x="108" y="20" width="8" height="4" fill="#DECB72" />
<rect x="116" y="20" width="8" height="36" fill="#B59500" />
<rect x="108" y="24" width="8" height="20" fill="#FFED9A" />
<rect x="28" y="28" width="36" height="8" fill="#FFED9A" />
<rect x="64" y="28" width="8" height="8" fill="#FFFBEA" />
<rect x="72" y="28" width="20" height="8" fill="#DED192" />
<rect x="92" y="28" width="16" height="4" fill="#FFED9A" />
<rect x="92" y="32" width="4" height="4" fill="#DED192" />
<rect x="96" y="32" width="4" height="4" fill="#DECB72" />
<rect x="100" y="32" width="8" height="16" fill="#FFED9A" />
<rect x="28" y="36" width="20" height="12" fill="#FFED9A" />
<rect x="48" y="36" width="8" height="4" fill="#F1E094" />
<rect x="56" y="36" width="12" height="4" fill="#FFED9A" />
<rect x="68" y="36" width="20" height="4" fill="#FFFBEA" />
<rect x="88" y="36" width="4" height="4" fill="#DED192" />
<rect x="92" y="36" width="4" height="4" fill="#D1C06F" />
<rect x="96" y="36" width="4" height="4" fill="#D1BE62" />
<rect x="48" y="40" width="4" height="24" fill="#FFED9A" />
<rect x="52" y="40" width="24" height="4" fill="#F1E094" />
<rect x="76" y="40" width="16" height="4" fill="#FFED9A" />
<rect x="92" y="40" width="8" height="4" fill="#DECB72" />
<rect x="52" y="44" width="8" height="8" fill="#FFED9A" />
<rect x="60" y="44" width="36" height="4" fill="#F1E094" />
<rect x="96" y="44" width="4" height="4" fill="#FFED9A" />
<rect x="108" y="44" width="4" height="4" fill="#FFED9A" />
<rect x="112" y="44" width="4" height="28" fill="#B59500" />
<rect x="28" y="48" width="8" height="16" fill="#FFED9A" />
<rect x="36" y="48" width="4" height="8" fill="#F1E094" />
<rect x="40" y="48" width="8" height="4" fill="#FFED9A" />
<rect x="60" y="48" width="4" height="8" fill="#FFED9A" />
<rect x="64" y="48" width="48" height="4" fill="#F1E094" />
<rect x="16" y="52" width="4" height="4" fill="#DECB72" />
<rect x="20" y="52" width="8" height="4" fill="#FFED9A" />
<rect x="40" y="52" width="4" height="24" fill="#F1E094" />
<rect x="44" y="52" width="4" height="8" fill="#FFED9A" />
<rect x="52" y="52" width="8" height="4" fill="#FFFBEA" />
<rect x="64" y="52" width="8" height="4" fill="#FFED9A" />
<rect x="72" y="52" width="40" height="4" fill="#F1E094" />
<rect x="16" y="56" width="8" height="20" fill="#FFFFFF" />
<rect x="24" y="56" width="4" height="60" fill="#FFED9A" />
<rect x="36" y="56" width="4" height="12" fill="#FFED9A" />
<rect x="52" y="56" width="4" height="4" fill="#FFFBEA" />
<rect x="56" y="56" width="8" height="8" fill="#DED192" />
<rect x="64" y="56" width="8" height="4" fill="#FFFBEA" />
<rect x="72" y="56" width="8" height="4" fill="#FFED9A" />
<rect x="80" y="56" width="32" height="4" fill="#F1E094" />
<rect x="116" y="56" width="4" height="12" fill="#B59500" />
<rect x="44" y="60" width="4" height="36" fill="#F1E094" />
<rect x="52" y="60" width="4" height="12" fill="#FFED9A" />
<rect x="64" y="60" width="4" height="12" fill="#DED192" />
<rect x="68" y="60" width="8" height="4" fill="#FFFBEA" />
<rect x="76" y="60" width="12" height="4" fill="#FFED9A" />
<rect x="88" y="60" width="20" height="4" fill="#F1E094" />
<rect x="108" y="60" width="4" height="20" fill="#B59500" />
<rect x="28" y="64" width="8" height="8" fill="#FFFBEA" />
<rect x="48" y="64" width="4" height="48" fill="#F1E094" />
<rect x="56" y="64" width="4" height="8" fill="#FFFBEA" />
<rect x="60" y="64" width="4" height="4" fill="#DED192" />
<rect x="68" y="64" width="4" height="12" fill="#DED192" />
<rect x="72" y="64" width="8" height="4" fill="#FFFBEA" />
<rect x="80" y="64" width="12" height="8" fill="#FFED9A" />
<rect x="92" y="64" width="12" height="4" fill="#F1E094" />
<rect x="104" y="64" width="4" height="20" fill="#B59500" />
<rect x="12" y="68" width="4" height="4" fill="#D1BE62" />
<rect x="36" y="68" width="4" height="20" fill="#FFFBEA" />
<rect x="60" y="68" width="4" height="8" fill="#FFFBEA" />
<rect x="72" y="68" width="4" height="8" fill="#DED192" />
<rect x="76" y="68" width="4" height="4" fill="#FFFBEA" />
<rect x="92" y="68" width="8" height="8" fill="#F1E094" />
<rect x="100" y="68" width="4" height="24" fill="#B59500" />
<rect x="12" y="72" width="4" height="40" fill="#C7B457" opacity="0.600000" />
<rect x="28" y="72" width="8" height="20" fill="#DED192" />
<rect x="52" y="72" width="4" height="40" fill="#F1E094" />
<rect x="56" y="72" width="4" height="8" fill="#FFED9A" />
<rect x="64" y="72" width="4" height="8" fill="#FFFBEA" />
<rect x="76" y="72" width="12" height="4" fill="#FFED9A" />
<rect x="88" y="72" width="4" height="12" fill="#F1E094" />
<rect x="16" y="76" width="4" height="32" fill="#DECB72" />
<rect x="20" y="76" width="4" height="32" fill="#FFED9A" />
<rect x="40" y="76" width="4" height="16" fill="#FFED9A" />
<rect x="60" y="76" width="4" height="12" fill="#FFED9A" />
<rect x="68" y="76" width="4" height="4" fill="#FFFBEA" />
<rect x="72" y="76" width="12" height="4" fill="#FFED9A" />
<rect x="84" y="76" width="4" height="8" fill="#F1E094" />
<rect x="92" y="76" width="4" height="4" fill="#F1E094" />
<rect x="96" y="76" width="4" height="24" fill="#B59500" />
<rect x="56" y="80" width="4" height="32" fill="#F1E094" />
<rect x="64" y="80" width="16" height="4" fill="#FFED9A" />
<rect x="80" y="80" width="4" height="12" fill="#F1E094" />
<rect x="92" y="80" width="4" height="20" fill="#B59500" />
<rect x="64" y="84" width="12" height="4" fill="#FFED9A" />
<rect x="76" y="84" width="4" height="12" fill="#F1E094" />
<rect x="84" y="84" width="8" height="20" fill="#B59500" />
<rect x="36" y="88" width="4" height="4" fill="#DED192" />
<rect x="60" y="88" width="4" height="20" fill="#F1E094" />
<rect x="64" y="88" width="8" height="4" fill="#FFED9A" />
<rect x="72" y="88" width="4" height="12" fill="#F1E094" />
<rect x="28" y="92" width="4" height="24" fill="#FFED9A" />
<rect x="32" y="92" width="4" height="4" fill="#DED192" />
<rect x="36" y="92" width="4" height="4" fill="#D1C06F" />
<rect x="40" y="92" width="4" height="8" fill="#DECB72" />
<rect x="64" y="92" width="8" height="8" fill="#F1E094" />
<rect x="80" y="92" width="4" height="16" fill="#B59500" />
<rect x="32" y="96" width="4" height="4" fill="#DECB72" />
<rect x="36" y="96" width="4" height="4" fill="#D1BE62" />
<rect x="44" y="96" width="4" height="16" fill="#FFED9A" />
<rect x="76" y="96" width="4" height="16" fill="#B59500" />
<rect x="32" y="100" width="12" height="16" fill="#FFED9A" />
<rect x="64" y="100" width="4" height="4" fill="#F1E094" />
<rect x="68" y="100" width="8" height="12" fill="#B59500" />
<rect x="64" y="104" width="4" height="16" fill="#B59500" />
<rect x="16" y="108" width="4" height="4" fill="#D1BE62" />
<rect x="20" y="108" width="4" height="8" fill="#DECB72" />
<rect x="60" y="108" width="4" height="12" fill="#B59500" />
<rect x="12" y="112" width="4" height="4" fill="#C7B457" opacity="0.839216" />
<rect x="16" y="112" width="4" height="4" fill="#C7B457" opacity="0.937255" />
<rect x="44" y="112" width="16" height="8" fill="#B59500" />
<rect x="68" y="112" width="4" height="4" fill="#B59500" />
<rect x="12" y="116" width="8" height="4" fill="#C7B457" opacity="0.600000" />
<rect x="20" y="116" width="24" height="8" fill="#B59500" />
<rect x="44" y="120" width="12" height="4" fill="#B59500" />
</svg>