<?xml version="1.0" encoding="UTF-8" ?>
<svg version="1.1" width="2048" height="2048" xmlns="http://www.w3.org/2000/svg" shape-rendering="crispEdges">
<rect x="128" y="0" width="320" height="128" fill="#C99F6D" />
<rect x="448" y="0" width="1472" height="64" fill="#B87746" />
<rect x="64" y="64" width="64" height="1920" fill="#C99F6D" />
<rect x="448" y="64" width="1536" height="64" fill="#C99F6D" />
<rect x="0" y="128" width="64" height="256" fill="#C99F6D" />
<rect x="128" y="128" width="64" height="64" fill="#C99F6D" />
<rect x="192" y="128" width="64" height="64" fill="#B87746" />
<rect x="256" y="128" width="1344" height="64" fill="#BF6C41" />
<rect x="1600" y="128" width="64" height="64" fill="#AF512A" />
<rect x="1664" y="128" width="128" height="64" fill="#BF6C41" />
<rect x="1792" y="128" width="192" height="64" fill="#C99F6D" />
<rect x="1984" y="128" width="64" height="1792" fill="#B87746" />
<rect x="128" y="192" width="64" height="64" fill="#B87746" />
<rect x="192" y="192" width="128" height="128" fill="#AF512A" />
<rect x="320" y="192" width="576" height="64" fill="#BF6C41" />
<rect x="896" y="192" width="256" height="320" fill="#EBE8D8" />
<rect x="1152" y="192" width="320" height="64" fill="#BF6C41" />
<rect x="1472" y="192" width="64" height="384" fill="#EBE8D8" />
<rect x="1536" y="192" width="128" height="64" fill="#D7AE8A" />
<rect x="1664" y="192" width="64" height="64" fill="#AF512A" />
<rect x="1728" y="192" width="128" height="64" fill="#BF6C41" />
<rect x="1856" y="192" width="128" height="64" fill="#C99F6D" />
<rect x="128" y="256" width="64" height="64" fill="#AF512A" />
<rect x="320" y="256" width="64" height="64" fill="#BF6C41" />
<rect x="384" y="256" width="192" height="256" fill="#EBE8D8" />
<rect x="576" y="256" width="256" height="64" fill="#BF6C41" />
<rect x="832" y="256" width="64" height="192" fill="#EBE8D8" />
<rect x="1152" y="256" width="64" height="384" fill="#EBE8D8" />
<rect x="1216" y="256" width="192" height="64" fill="#BF6C41" />
<rect x="1408" y="256" width="64" height="384" fill="#EBE8D8" />
<rect x="1536" y="256" width="64" height="256" fill="#EBE8D8" />
<rect x="1600" y="256" width="128" height="64" fill="#D7AE8A" />
<rect x="1728" y="256" width="64" height="64" fill="#AF512A" />
<rect x="1792" y="256" width="128" height="64" fill="#BF6C41" />
<rect x="1920" y="256" width="64" height="128" fill="#C99F6D" />
<rect x="128" y="320" width="64" height="896" fill="#BF6C41" />
<rect x="192" y="320" width="64" height="64" fill="#AF512A" />
<rect x="256" y="320" width="64" height="64" fill="#BF6C41" />
<rect x="320" y="320" width="64" height="192" fill="#EBE8D8" />
<rect x="576" y="320" width="64" height="192" fill="#EBE8D8" />
<rect x="640" y="320" width="128" height="64" fill="#BF6C41" />
<rect x="768" y="320" width="64" height="192" fill="#EBE8D8" />
<rect x="1216" y="320" width="64" height="384" fill="#EBE8D8" />
<rect x="1280" y="320" width="64" height="64" fill="#BF6C41" />
<rect x="1344" y="320" width="64" height="384" fill="#EBE8D8" />
<rect x="1600" y="320" width="64" height="192" fill="#EBE8D8" />
<rect x="1664" y="320" width="128" height="64" fill="#D7AE8A" />
<rect x="1792" y="320" width="64" height="256" fill="#AF512A" />
<rect x="1856" y="320" width="64" height="64" fill="#BF6C41" />
<rect x="0" y="384" width="64" height="1536" fill="#B87746" />
<rect x="192" y="384" width="64" height="768" fill="#BF6C41" />
<rect x="256" y="384" width="64" height="192" fill="#EBE8D8" />
<rect x="640" y="384" width="64" height="192" fill="#EBE8D8" />
<rect x="704" y="384" width="64" height="64" fill="#BF6C41" />
<rect x="1280" y="384" width="64" height="384" fill="#EBE8D8" />
<rect x="1664" y="384" width="64" height="192" fill="#EBE8D8" />
<rect x="1728" y="384" width="64" height="128" fill="#D7AE8A" />
<rect x="1856" y="384" width="64" height="1408" fill="#AF512A" />
<rect x="1920" y="384" width="64" height="1600" fill="#B87746" />
<rect x="704" y="448" width="64" height="384" fill="#EBE8D8" />
<rect x="832" y="448" width="64" height="192" fill="#BF6C41" />
<rect x="320" y="512" width="192" height="128" fill="#D7AE8A" />
<rect x="512" y="512" width="64" height="64" fill="#EBE8D8" />
<rect x="576" y="512" width="64" height="128" fill="#D7AE8A" />
<rect x="768" y="512" width="64" height="64" fill="#BF6C41" />
<rect x="896" y="512" width="64" height="64" fill="#BF6C41" />
<rect x="960" y="512" width="192" height="64" fill="#EBE8D8" />
<rect x="1536" y="512" width="128" height="256" fill="#D7AE8A" />
<rect x="1728" y="512" width="64" height="64" fill="#BF6C41" />
<rect x="256" y="576" width="64" height="64" fill="#AF512A" />
<rect x="512" y="576" width="64" height="128" fill="#D7AE8A" />
<rect x="640" y="576" width="64" height="64" fill="#D7AE8A" />
<rect x="768" y="576" width="64" height="192" fill="#EBE8D8" />
<rect x="896" y="576" width="192" height="64" fill="#EBE8D8" />
<rect x="1088" y="576" width="64" height="128" fill="#D7AE8A" />
<rect x="1472" y="576" width="64" height="256" fill="#D7AE8A" />
<rect x="1664" y="576" width="64" height="128" fill="#D7AE8A" />
<rect x="1728" y="576" width="64" height="448" fill="#EBE8D8" />
<rect x="1792" y="576" width="64" height="64" fill="#BF6C41" />
<rect x="256" y="640" width="64" height="320" fill="#BF6C41" />
<rect x="320" y="640" width="64" height="64" fill="#AF512A" />
<rect x="384" y="640" width="128" height="64" fill="#D7AE8A" />
<rect x="576" y="640" width="64" height="64" fill="#AF512A" />
<rect x="640" y="640" width="64" height="64" fill="#EBE8D8" />
<rect x="832" y="640" width="192" height="128" fill="#EBE8D8" />
<rect x="1024" y="640" width="64" height="256" fill="#D7AE8A" />
<rect x="1152" y="640" width="64" height="192" fill="#AF512A" />
<rect x="1408" y="640" width="64" height="192" fill="#D7AE8A" />
<rect x="1792" y="640" width="64" height="320" fill="#EBE8D8" />
<rect x="320" y="704" width="192" height="128" fill="#BF6C41" />
<rect x="512" y="704" width="64" height="64" fill="#AF512A" />
<rect x="576" y="704" width="128" height="64" fill="#BF6C41" />
<rect x="1088" y="704" width="64" height="64" fill="#AF512A" />
<rect x="1216" y="704" width="64" height="192" fill="#BF6C41" />
<rect x="1344" y="704" width="64" height="128" fill="#D7AE8A" />
<rect x="1664" y="704" width="64" height="320" fill="#EBE8D8" />
<rect x="512" y="768" width="128" height="64" fill="#BF6C41" />
<rect x="640" y="768" width="64" height="192" fill="#EBE8D8" />
<rect x="768" y="768" width="128" height="320" fill="#D7AE8A" />
<rect x="896" y="768" width="64" height="64" fill="#EBE8D8" />
<rect x="960" y="768" width="64" height="64" fill="#D7AE8A" />
<rect x="1088" y="768" width="64" height="128" fill="#D7AE8A" />
<rect x="1280" y="768" width="64" height="192" fill="#BF6C41" />
<rect x="1536" y="768" width="64" height="64" fill="#D7AE8A" />
<rect x="1600" y="768" width="64" height="192" fill="#EBE8D8" />
<rect x="320" y="832" width="64" height="64" fill="#BF6C41" />
<rect x="384" y="832" width="256" height="128" fill="#EBE8D8" />
<rect x="704" y="832" width="64" height="320" fill="#D7AE8A" />
<rect x="896" y="832" width="64" height="192" fill="#D7AE8A" />
<rect x="960" y="832" width="64" height="832" fill="#EBE8D8" />
<rect x="1152" y="832" width="64" height="576" fill="#EBE8D8" />
<rect x="1344" y="832" width="64" height="192" fill="#BF6C41" />
<rect x="1408" y="832" width="128" height="64" fill="#AF512A" />
<rect x="1536" y="832" width="64" height="128" fill="#EBE8D8" />
<rect x="320" y="896" width="64" height="256" fill="#EBE8D8" />
<rect x="1024" y="896" width="128" height="512" fill="#EBE8D8" />
<rect x="1216" y="896" width="64" height="448" fill="#EBE8D8" />
<rect x="1408" y="896" width="128" height="128" fill="#BF6C41" />
<rect x="256" y="960" width="64" height="192" fill="#EBE8D8" />
<rect x="384" y="960" width="192" height="64" fill="#EBE8D8" />
<rect x="576" y="960" width="128" height="256" fill="#D7AE8A" />
<rect x="1280" y="960" width="64" height="384" fill="#EBE8D8" />
<rect x="1536" y="960" width="128" height="128" fill="#BF6C41" />
<rect x="1792" y="960" width="64" height="320" fill="#BF6C41" />
<rect x="384" y="1024" width="128" height="64" fill="#EBE8D8" />
<rect x="512" y="1024" width="64" height="256" fill="#D7AE8A" />
<rect x="896" y="1024" width="64" height="704" fill="#EBE8D8" />
<rect x="1344" y="1024" width="192" height="64" fill="#EBE8D8" />
<rect x="1664" y="1024" width="128" height="320" fill="#BF6C41" />
<rect x="384" y="1088" width="128" height="192" fill="#D7AE8A" />
<rect x="768" y="1088" width="64" height="64" fill="#D7AE8A" />
<rect x="832" y="1088" width="64" height="704" fill="#EBE8D8" />
<rect x="1344" y="1088" width="128" height="64" fill="#EBE8D8" />
<rect x="1472" y="1088" width="128" height="256" fill="#D7AE8A" />
<rect x="1600" y="1088" width="64" height="64" fill="#BF6C41" />
<rect x="192" y="1152" width="64" height="256" fill="#AF512A" />
<rect x="256" y="1152" width="64" height="64" fill="#BF6C41" />
<rect x="320" y="1152" width="64" height="64" fill="#D7AE8A" />
<rect x="704" y="1152" width="128" height="640" fill="#EBE8D8" />
<rect x="1344" y="1152" width="64" height="192" fill="#EBE8D8" />
<rect x="1408" y="1152" width="64" height="192" fill="#D7AE8A" />
<rect x="1600" y="1152" width="64" height="192" fill="#AF512A" />
<rect x="128" y="1216" width="64" height="64" fill="#AF512A" />
<rect x="256" y="1216" width="128" height="128" fill="#AF512A" />
<rect x="576" y="1216" width="64" height="64" fill="#D7AE8A" />
<rect x="640" y="1216" width="64" height="576" fill="#EBE8D8" />
<rect x="128" y="1280" width="64" height="384" fill="#BF6C41" />
<rect x="384" y="1280" width="64" height="64" fill="#D7AE8A" />
<rect x="448" y="1280" width="192" height="512" fill="#EBE8D8" />
<rect x="1792" y="1280" width="64" height="256" fill="#AF512A" />
<rect x="256" y="1344" width="64" height="64" fill="#AF512A" />
<rect x="320" y="1344" width="64" height="64" fill="#D7AE8A" />
<rect x="384" y="1344" width="64" height="448" fill="#EBE8D8" />
<rect x="1216" y="1344" width="192" height="256" fill="#D7AE8A" />
<rect x="1408" y="1344" width="64" height="64" fill="#EBE8D8" />
<rect x="1472" y="1344" width="64" height="64" fill="#D7AE8A" />
<rect x="1536" y="1344" width="64" height="64" fill="#AF512A" />
<rect x="1600" y="1344" width="128" height="128" fill="#BF6C41" />
<rect x="1728" y="1344" width="64" height="128" fill="#AF512A" />
<rect x="192" y="1408" width="64" height="64" fill="#BF6C41" />
<rect x="256" y="1408" width="64" height="64" fill="#D7AE8A" />
<rect x="320" y="1408" width="64" height="320" fill="#EBE8D8" />
<rect x="1024" y="1408" width="64" height="64" fill="#EBE8D8" />
<rect x="1088" y="1408" width="128" height="256" fill="#D7AE8A" />
<rect x="1408" y="1408" width="64" height="128" fill="#D7AE8A" />
<rect x="1472" y="1408" width="128" height="192" fill="#BF6C41" />
<rect x="192" y="1472" width="128" height="128" fill="#EBE8D8" />
<rect x="1024" y="1472" width="64" height="128" fill="#D7AE8A" />
<rect x="1600" y="1472" width="64" height="64" fill="#BF6C41" />
<rect x="1664" y="1472" width="64" height="320" fill="#EBE8D8" />
<rect x="1728" y="1472" width="64" height="64" fill="#BF6C41" />
<rect x="1408" y="1536" width="64" height="128" fill="#EBE8D8" />
<rect x="1600" y="1536" width="64" height="256" fill="#EBE8D8" />
<rect x="1728" y="1536" width="64" height="192" fill="#EBE8D8" />
<rect x="1792" y="1536" width="64" height="64" fill="#BF6C41" />
<rect x="192" y="1600" width="64" height="64" fill="#D7AE8A" />
<rect x="256" y="1600" width="64" height="64" fill="#EBE8D8" />
<rect x="1024" y="1600" width="64" height="64" fill="#EBE8D8" />
<rect x="1216" y="1600" width="64" height="64" fill="#D7AE8A" />
<rect x="1280" y="1600" width="128" height="128" fill="#EBE8D8" />
<rect x="1472" y="1600" width="64" height="64" fill="#BF6C41" />
<rect x="1536" y="1600" width="64" height="192" fill="#EBE8D8" />
<rect x="1792" y="1600" width="64" height="64" fill="#EBE8D8" />
<rect x="128" y="1664" width="128" height="128" fill="#AF512A" />
<rect x="256" y="1664" width="64" height="64" fill="#D7AE8A" />
<rect x="960" y="1664" width="192" height="192" fill="#BF6C41" />
<rect x="1152" y="1664" width="128" height="64" fill="#EBE8D8" />
<rect x="1408" y="1664" width="64" height="192" fill="#BF6C41" />
<rect x="1472" y="1664" width="64" height="64" fill="#EBE8D8" />
<rect x="1792" y="1664" width="64" height="128" fill="#BF6C41" />
<rect x="256" y="1728" width="64" height="192" fill="#AF512A" />
<rect x="320" y="1728" width="64" height="64" fill="#D7AE8A" />
<rect x="896" y="1728" width="64" height="128" fill="#BF6C41" />
<rect x="1152" y="1728" width="64" height="128" fill="#BF6C41" />
<rect x="1216" y="1728" width="128" height="64" fill="#EBE8D8" />
<rect x="1344" y="1728" width="64" height="128" fill="#BF6C41" />
<rect x="1472" y="1728" width="64" height="128" fill="#BF6C41" />
<rect x="1728" y="1728" width="64" height="64" fill="#BF6C41" />
<rect x="128" y="1792" width="64" height="256" fill="#C99F6D" />
<rect x="192" y="1792" width="64" height="64" fill="#AF512A" />
<rect x="320" y="1792" width="128" height="128" fill="#AF512A" />
<rect x="448" y="1792" width="448" height="64" fill="#BF6C41" />
<rect x="1216" y="1792" width="128" height="64" fill="#BF6C41" />
<rect x="1536" y="1792" width="128" height="64" fill="#BF6C41" />
<rect x="1664" y="1792" width="192" height="64" fill="#AF512A" />
<rect x="1856" y="1792" width="64" height="256" fill="#B87746" />
<rect x="192" y="1856" width="64" height="192" fill="#C99F6D" />
<rect x="448" y="1856" width="1344" height="64" fill="#AF512A" />
<rect x="1792" y="1856" width="64" height="192" fill="#B87746" />
<rect x="256" y="1920" width="64" height="128" fill="#C99F6D" />
<rect x="320" y="1920" width="1472" height="128" fill="#B87746" />
</svg>