<?xml version="1.0" encoding="UTF-8" ?>
<svg version="1.1" width="128" height="128" xmlns="http://www.w3.org/2000/svg" shape-rendering="crispEdges">
<rect x="32" y="0" width="32" height="4" fill="#FFDCB9" />
<rect x="24" y="4" width="16" height="4" fill="#FFDCB9" />
<rect x="40" y="4" width="24" height="12" fill="#FFF6EE" />
<rect x="64" y="4" width="4" height="4" fill="#FFDCB9" />
<rect x="16" y="8" width="8" height="12" fill="#FFDCB9" />
<rect x="24" y="8" width="8" height="4" fill="#FFE6CE" />
<rect x="32" y="8" width="8" height="60" fill="#FFF6EE" />
<rect x="64" y="8" width="4" height="12" fill="#FFF6EE" />
<rect x="68" y="8" width="4" height="4" fill="#FFDCB9" />
<rect x="12" y="12" width="4" height="12" fill="#FFDCB9" />
<rect x="24" y="12" width="4" height="4" fill="#FFDCB9" />
<rect x="28" y="12" width="4" height="48" fill="#FFF6EE" />
<rect x="68" y="12" width="4" height="12" fill="#FFF6EE" />
<rect x="72" y="12" width="4" height="4" fill="#FFDCB9" />
<rect x="24" y="16" width="4" height="40" fill="#FFF6EE" />
<rect x="40" y="16" width="20" height="4" fill="#FFF6EE" />
<rect x="60" y="16" width="4" height="32" fill="#FFFFFF" />
<rect x="72" y="16" width="4" height="12" fill="#FFF6EE" />
<rect x="76" y="16" width="8" height="4" fill="#FFDCB9" />
<rect x="8" y="20" width="4" height="4" fill="#FFDCB9" />
<rect x="16" y="20" width="4" height="4" fill="#FFDCB9" />
<rect x="20" y="20" width="4" height="28" fill="#FFF6EE" />
<rect x="40" y="20" width="16" height="4" fill="#FFF6EE" />
<rect x="56" y="20" width="4" height="24" fill="#FFFFFF" />
<rect x="64" y="20" width="4" height="32" fill="#FFFFFF" />
<rect x="76" y="20" width="8" height="12" fill="#FFF6EE" />
<rect x="84" y="20" width="4" height="4" fill="#FFDCB9" />
<rect x="4" y="24" width="4" height="4" fill="#FFDCB9" />
<rect x="8" y="24" width="8" height="32" fill="#FFE6CE" />
<rect x="16" y="24" width="4" height="8" fill="#FFF6EE" />
<rect x="40" y="24" width="12" height="4" fill="#FFF6EE" />
<rect x="52" y="24" width="4" height="16" fill="#FFFFFF" />
<rect x="68" y="24" width="4" height="32" fill="#FFFFFF" />
<rect x="84" y="24" width="4" height="20" fill="#FFF6EE" />
<rect x="88" y="24" width="4" height="4" fill="#FFDCB9" />
<rect x="0" y="28" width="4" height="44" fill="#FFDCB9" />
<rect x="4" y="28" width="4" height="20" fill="#FFE6CE" />
<rect x="40" y="28" width="8" height="48" fill="#FFF6EE" />
<rect x="48" y="28" width="4" height="8" fill="#FFFFFF" />
<rect x="72" y="28" width="4" height="32" fill="#FFFFFF" />
<rect x="88" y="28" width="4" height="20" fill="#FFF6EE" />
<rect x="92" y="28" width="4" height="4" fill="#FFDCB9" />
<rect x="16" y="32" width="4" height="32" fill="#FFE6CE" />
<rect x="76" y="32" width="4" height="24" fill="#FFFFFF" />
<rect x="80" y="32" width="4" height="8" fill="#FFF6EE" />
<rect x="92" y="32" width="4" height="80" fill="#FFF6EE" />
<rect x="96" y="32" width="4" height="4" fill="#FFDCB9" />
<rect x="48" y="36" width="4" height="20" fill="#FFF6EE" />
<rect x="96" y="36" width="4" height="76" fill="#FFF6EE" />
<rect x="100" y="36" width="4" height="4" fill="#FFDCB9" />
<rect x="52" y="40" width="4" height="12" fill="#FFF6EE" />
<rect x="80" y="40" width="4" height="24" fill="#FFFFFF" />
<rect x="100" y="40" width="4" height="72" fill="#FFF6EE" />
<rect x="104" y="40" width="4" height="4" fill="#FFDCB9" />
<rect x="56" y="44" width="4" height="12" fill="#FFF6EE" />
<rect x="84" y="44" width="4" height="24" fill="#FFFFFF" />
<rect x="104" y="44" width="4" height="64" fill="#FFF6EE" />
<rect x="108" y="44" width="4" height="8" fill="#FFDCB9" />
<rect x="4" y="48" width="4" height="4" fill="#FFDCB9" />
<rect x="20" y="48" width="4" height="28" fill="#FFE6CE" />
<rect x="60" y="48" width="4" height="12" fill="#FFF6EE" />
<rect x="88" y="48" width="4" height="16" fill="#FFFFFF" />
<rect x="4" y="52" width="4" height="12" fill="#FFFFFF" />
<rect x="52" y="52" width="4" height="16" fill="#FFFFFF" />
<rect x="64" y="52" width="4" height="12" fill="#FFF6EE" />
<rect x="108" y="52" width="4" height="52" fill="#FFF6EE" />
<rect x="112" y="52" width="4" height="4" fill="#FFDCB9" />
<rect x="8" y="56" width="4" height="12" fill="#FFFFFF" />
<rect x="12" y="56" width="4" height="4" fill="#FFE6CE" />
<rect x="24" y="56" width="4" height="28" fill="#FFE6CE" />
<rect x="48" y="56" width="4" height="8" fill="#FFFFFF" />
<rect x="56" y="56" width="4" height="16" fill="#FFFFFF" />
<rect x="68" y="56" width="4" height="44" fill="#FFF6EE" />
<rect x="76" y="56" width="4" height="48" fill="#FFF6EE" />
<rect x="112" y="56" width="4" height="44" fill="#FFF6EE" />
<rect x="116" y="56" width="4" height="4" fill="#FFDCB9" />
<rect x="12" y="60" width="4" height="12" fill="#FFFFFF" />
<rect x="28" y="60" width="4" height="28" fill="#FFE6CE" />
<rect x="60" y="60" width="4" height="16" fill="#FFFFFF" />
<rect x="72" y="60" width="4" height="44" fill="#FFF6EE" />
<rect x="116" y="60" width="4" height="36" fill="#FFF6EE" />
<rect x="120" y="60" width="4" height="4" fill="#FFDCB9" />
<rect x="4" y="64" width="4" height="16" fill="#FFDCB9" />
<rect x="16" y="64" width="4" height="4" fill="#FFFFFF" />
<rect x="48" y="64" width="4" height="20" fill="#FFF6EE" />
<rect x="64" y="64" width="4" height="8" fill="#FFFFFF" />
<rect x="80" y="64" width="4" height="44" fill="#FFF6EE" />
<rect x="88" y="64" width="4" height="44" fill="#FFF6EE" />
<rect x="120" y="64" width="4" height="24" fill="#FFF6EE" />
<rect x="124" y="64" width="4" height="32" fill="#FFDCB9" />
<rect x="8" y="68" width="4" height="20" fill="#FFDCB9" />
<rect x="16" y="68" width="4" height="4" fill="#FFE6CE" />
<rect x="32" y="68" width="4" height="24" fill="#FFE6CE" />
<rect x="36" y="68" width="4" height="4" fill="#FFF6EE" />
<rect x="52" y="68" width="4" height="20" fill="#FFF6EE" />
<rect x="84" y="68" width="4" height="40" fill="#FFF6EE" />
<rect x="12" y="72" width="8" height="20" fill="#FFDCB9" />
<rect x="36" y="72" width="4" height="24" fill="#FFE6CE" />
<rect x="56" y="72" width="4" height="20" fill="#FFF6EE" />
<rect x="64" y="72" width="4" height="28" fill="#FFF6EE" />
<rect x="20" y="76" width="4" height="24" fill="#FFDCB9" />
<rect x="40" y="76" width="4" height="20" fill="#FFE6CE" />
<rect x="44" y="76" width="4" height="4" fill="#FFF6EE" />
<rect x="60" y="76" width="4" height="20" fill="#FFF6EE" />
<rect x="44" y="80" width="4" height="20" fill="#FFE6CE" />
<rect x="24" y="84" width="4" height="20" fill="#FFDCB9" />
<rect x="48" y="84" width="4" height="20" fill="#FFE6CE" />
<rect x="28" y="88" width="4" height="20" fill="#FFDCB9" />
<rect x="52" y="88" width="4" height="20" fill="#FFE6CE" />
<rect x="120" y="88" width="4" height="16" fill="#FFDCB9" />
<rect x="16" y="92" width="4" height="4" fill="#FFDCB9" />
<rect x="32" y="92" width="4" height="20" fill="#FFDCB9" />
<rect x="56" y="92" width="4" height="20" fill="#FFE6CE" />
<rect x="36" y="96" width="8" height="20" fill="#FFDCB9" />
<rect x="60" y="96" width="4" height="20" fill="#FFE6CE" />
<rect x="116" y="96" width="4" height="8" fill="#FFE6CE" />
<rect x="44" y="100" width="4" height="20" fill="#FFDCB9" />
<rect x="64" y="100" width="8" height="16" fill="#FFE6CE" />
<rect x="112" y="100" width="4" height="16" fill="#FFDCB9" />
<rect x="48" y="104" width="4" height="20" fill="#FFDCB9" />
<rect x="72" y="104" width="8" height="16" fill="#FFE6CE" />
<rect x="108" y="104" width="4" height="12" fill="#FFDCB9" />
<rect x="116" y="104" width="4" height="8" fill="#FFDCB9" />
<rect x="52" y="108" width="4" height="16" fill="#FFDCB9" />
<rect x="80" y="108" width="12" height="16" fill="#FFE6CE" />
<rect x="104" y="108" width="4" height="12" fill="#FFDCB9" />
<rect x="56" y="112" width="4" height="16" fill="#FFDCB9" />
<rect x="92" y="112" width="12" height="8" fill="#FFE6CE" />
<rect x="40" y="116" width="4" height="4" fill="#FFDCB9" />
<rect x="60" y="116" width="8" height="12" fill="#FFDCB9" />
<rect x="68" y="116" width="4" height="4" fill="#FFE6CE" />
<rect x="68" y="120" width="12" height="8" fill="#FFDCB9" />
<rect x="92" y="120" width="8" height="4" fill="#FFE6CE" />
<rect x="100" y="120" width="4" height="4" fill="#FFDCB9" />
<rect x="80" y="124" width="20" height="4" fill="#FFDCB9" />
</svg>