<?xml version="1.0" encoding="UTF-8" ?>
<svg version="1.1" width="128" height="128" xmlns="http://www.w3.org/2000/svg" shape-rendering="crispEdges">
<rect x="24" y="0" width="40" height="4" fill="#A30DBD" />
<rect x="20" y="4" width="20" height="4" fill="#FFFFFF" />
<rect x="40" y="4" width="20" height="4" fill="#E0AFE8" />
<rect x="60" y="4" width="4" height="4" fill="#FFFFFF" />
<rect x="64" y="4" width="8" height="4" fill="#A30DBD" />
<rect x="16" y="8" width="4" height="4" fill="#A30DBD" />
<rect x="20" y="8" width="4" height="20" fill="#E0AFE8" />
<rect x="24" y="8" width="20" height="4" fill="#FFFFFF" />
<rect x="44" y="8" width="20" height="4" fill="#E0AFE8" />
<rect x="64" y="8" width="8" height="4" fill="#FFFFFF" />
<rect x="72" y="8" width="4" height="4" fill="#A30DBD" />
<rect x="12" y="12" width="4" height="4" fill="#A30DBD" />
<rect x="16" y="12" width="4" height="24" fill="#E0AFE8" />
<rect x="24" y="12" width="8" height="4" fill="#E0AFE8" />
<rect x="32" y="12" width="28" height="12" fill="#D35CE8" />
<rect x="60" y="12" width="12" height="4" fill="#E0AFE8" />
<rect x="72" y="12" width="4" height="4" fill="#FFFFFF" />
<rect x="76" y="12" width="4" height="4" fill="#A30DBD" />
<rect x="8" y="16" width="4" height="4" fill="#A30DBD" />
<rect x="12" y="16" width="4" height="40" fill="#E0AFE8" />
<rect x="24" y="16" width="4" height="4" fill="#E0AFE8" />
<rect x="28" y="16" width="4" height="8" fill="#D35CE8" />
<rect x="60" y="16" width="8" height="12" fill="#D35CE8" />
<rect x="68" y="16" width="12" height="4" fill="#E0AFE8" />
<rect x="80" y="16" width="4" height="4" fill="#A30DBD" />
<rect x="4" y="20" width="4" height="8" fill="#A30DBD" />
<rect x="8" y="20" width="4" height="12" fill="#E0AFE8" />
<rect x="24" y="20" width="4" height="4" fill="#D35CE8" />
<rect x="68" y="20" width="4" height="16" fill="#D35CE8" />
<rect x="72" y="20" width="8" height="4" fill="#E0AFE8" />
<rect x="80" y="20" width="4" height="4" fill="#FFFFFF" />
<rect x="84" y="20" width="4" height="4" fill="#A30DBD" />
<rect x="0" y="24" width="4" height="20" fill="#651373" />
<rect x="56" y="24" width="4" height="4" fill="#D35CE8" />
<rect x="72" y="24" width="4" height="12" fill="#D35CE8" />
<rect x="76" y="24" width="8" height="4" fill="#E0AFE8" />
<rect x="84" y="24" width="4" height="4" fill="#FFFFFF" />
<rect x="88" y="24" width="4" height="4" fill="#A30DBD" />
<rect x="4" y="28" width="4" height="12" fill="#651373" />
<rect x="64" y="28" width="4" height="4" fill="#D35CE8" />
<rect x="76" y="28" width="8" height="12" fill="#D35CE8" />
<rect x="84" y="28" width="4" height="4" fill="#E0AFE8" />
<rect x="88" y="28" width="4" height="4" fill="#FFFFFF" />
<rect x="92" y="28" width="4" height="4" fill="#A30DBD" />
<rect x="8" y="32" width="4" height="4" fill="#651373" />
<rect x="84" y="32" width="4" height="16" fill="#D35CE8" />
<rect x="88" y="32" width="8" height="4" fill="#E0AFE8" />
<rect x="96" y="32" width="4" height="4" fill="#A30DBD" />
<rect x="8" y="36" width="4" height="8" fill="#E0AFE8" />
<rect x="88" y="36" width="4" height="16" fill="#D35CE8" />
<rect x="92" y="36" width="8" height="4" fill="#E0AFE8" />
<rect x="100" y="36" width="4" height="4" fill="#A30DBD" />
<rect x="4" y="40" width="4" height="16" fill="#A30DBD" />
<rect x="80" y="40" width="4" height="4" fill="#D35CE8" />
<rect x="92" y="40" width="4" height="20" fill="#D35CE8" />
<rect x="96" y="40" width="8" height="4" fill="#E0AFE8" />
<rect x="104" y="40" width="4" height="4" fill="#A30DBD" />
<rect x="0" y="44" width="4" height="16" fill="#A30DBD" />
<rect x="8" y="44" width="4" height="8" fill="#A30DBD" />
<rect x="96" y="44" width="4" height="20" fill="#D35CE8" />
<rect x="100" y="44" width="8" height="8" fill="#E0AFE8" />
<rect x="108" y="44" width="4" height="4" fill="#A30DBD" />
<rect x="108" y="48" width="4" height="12" fill="#E0AFE8" />
<rect x="112" y="48" width="4" height="4" fill="#A30DBD" />
<rect x="8" y="52" width="4" height="12" fill="#651373" />
<rect x="16" y="52" width="4" height="12" fill="#E0AFE8" />
<rect x="100" y="52" width="4" height="20" fill="#D35CE8" />
<rect x="104" y="52" width="4" height="4" fill="#E0AFE8" />
<rect x="112" y="52" width="4" height="16" fill="#E0AFE8" />
<rect x="116" y="52" width="4" height="4" fill="#A30DBD" />
<rect x="4" y="56" width="4" height="12" fill="#651373" />
<rect x="12" y="56" width="4" height="4" fill="#651373" />
<rect x="20" y="56" width="4" height="12" fill="#E0AFE8" />
<rect x="104" y="56" width="4" height="48" fill="#D35CE8" />
<rect x="116" y="56" width="4" height="36" fill="#E0AFE8" />
<rect x="120" y="56" width="4" height="8" fill="#A30DBD" />
<rect x="12" y="60" width="4" height="16" fill="#A30DBD" />
<rect x="108" y="60" width="4" height="40" fill="#D35CE8" />
<rect x="8" y="64" width="4" height="12" fill="#A30DBD" />
<rect x="16" y="64" width="4" height="8" fill="#A30DBD" />
<rect x="24" y="64" width="4" height="8" fill="#E0AFE8" />
<rect x="120" y="64" width="4" height="4" fill="#E0AFE8" />
<rect x="124" y="64" width="4" height="40" fill="#A30DBD" />
<rect x="4" y="68" width="4" height="4" fill="#A30DBD" />
<rect x="20" y="68" width="4" height="12" fill="#651373" />
<rect x="28" y="68" width="4" height="12" fill="#E0AFE8" />
<rect x="112" y="68" width="4" height="28" fill="#D35CE8" />
<rect x="120" y="68" width="4" height="24" fill="#FFFFFF" />
<rect x="16" y="72" width="4" height="12" fill="#651373" />
<rect x="24" y="72" width="4" height="4" fill="#651373" />
<rect x="32" y="72" width="4" height="12" fill="#E0AFE8" />
<rect x="12" y="76" width="4" height="4" fill="#651373" />
<rect x="24" y="76" width="4" height="16" fill="#A30DBD" />
<rect x="36" y="76" width="4" height="12" fill="#E0AFE8" />
<rect x="20" y="80" width="4" height="16" fill="#A30DBD" />
<rect x="28" y="80" width="4" height="8" fill="#A30DBD" />
<rect x="40" y="80" width="4" height="12" fill="#E0AFE8" />
<rect x="16" y="84" width="4" height="4" fill="#A30DBD" />
<rect x="32" y="84" width="4" height="20" fill="#651373" />
<rect x="44" y="84" width="4" height="12" fill="#E0AFE8" />
<rect x="28" y="88" width="4" height="12" fill="#651373" />
<rect x="36" y="88" width="4" height="12" fill="#651373" />
<rect x="48" y="88" width="4" height="12" fill="#E0AFE8" />
<rect x="24" y="92" width="4" height="4" fill="#651373" />
<rect x="40" y="92" width="4" height="4" fill="#651373" />
<rect x="52" y="92" width="4" height="8" fill="#E0AFE8" />
<rect x="116" y="92" width="4" height="8" fill="#FFFFFF" />
<rect x="120" y="92" width="4" height="12" fill="#E0AFE8" />
<rect x="40" y="96" width="8" height="12" fill="#A30DBD" />
<rect x="56" y="96" width="4" height="8" fill="#E0AFE8" />
<rect x="112" y="96" width="4" height="8" fill="#E0AFE8" />
<rect x="36" y="100" width="4" height="8" fill="#A30DBD" />
<rect x="48" y="100" width="4" height="4" fill="#A30DBD" />
<rect x="52" y="100" width="4" height="12" fill="#651373" />
<rect x="60" y="100" width="4" height="8" fill="#E0AFE8" />
<rect x="108" y="100" width="4" height="16" fill="#E0AFE8" />
<rect x="116" y="100" width="4" height="8" fill="#E0AFE8" />
<rect x="32" y="104" width="4" height="4" fill="#A30DBD" />
<rect x="48" y="104" width="4" height="12" fill="#651373" />
<rect x="56" y="104" width="4" height="4" fill="#651373" />
<rect x="64" y="104" width="8" height="8" fill="#E0AFE8" />
<rect x="100" y="104" width="8" height="16" fill="#E0AFE8" />
<rect x="112" y="104" width="4" height="4" fill="#FFFFFF" />
<rect x="120" y="104" width="4" height="4" fill="#A30DBD" />
<rect x="40" y="108" width="4" height="4" fill="#A30DBD" />
<rect x="44" y="108" width="4" height="4" fill="#651373" />
<rect x="56" y="108" width="8" height="12" fill="#A30DBD" />
<rect x="72" y="108" width="4" height="8" fill="#E0AFE8" />
<rect x="92" y="108" width="8" height="8" fill="#E0AFE8" />
<rect x="112" y="108" width="4" height="4" fill="#E0AFE8" />
<rect x="116" y="108" width="4" height="4" fill="#A30DBD" />
<rect x="52" y="112" width="4" height="8" fill="#A30DBD" />
<rect x="64" y="112" width="4" height="4" fill="#A30DBD" />
<rect x="68" y="112" width="4" height="12" fill="#651373" />
<rect x="76" y="112" width="16" height="4" fill="#E0AFE8" />
<rect x="112" y="112" width="4" height="4" fill="#A30DBD" />
<rect x="64" y="116" width="4" height="8" fill="#651373" />
<rect x="72" y="116" width="4" height="4" fill="#651373" />
<rect x="76" y="116" width="8" height="12" fill="#A30DBD" />
<rect x="84" y="116" width="8" height="4" fill="#E0AFE8" />
<rect x="92" y="116" width="4" height="12" fill="#651373" />
<rect x="96" y="116" width="4" height="4" fill="#E0AFE8" />
<rect x="108" y="116" width="4" height="4" fill="#A30DBD" />
<rect x="56" y="120" width="4" height="4" fill="#A30DBD" />
<rect x="60" y="120" width="4" height="4" fill="#651373" />
<rect x="72" y="120" width="4" height="8" fill="#A30DBD" />
<rect x="84" y="120" width="4" height="4" fill="#A30DBD" />
<rect x="88" y="120" width="4" height="8" fill="#651373" />
<rect x="96" y="120" width="4" height="8" fill="#651373" />
<rect x="100" y="120" width="8" height="4" fill="#A30DBD" />
<rect x="68" y="124" width="4" height="4" fill="#A30DBD" />
<rect x="84" y="124" width="4" height="4" fill="#651373" />
<rect x="100" y="124" width="4" height="4" fill="#651373" />
</svg>