<?xml version="1.0" encoding="UTF-8" ?>
<svg version="1.1" width="128" height="128" xmlns="http://www.w3.org/2000/svg" shape-rendering="crispEdges">
<rect x="12" y="0" width="104" height="4" fill="#900000" />
<rect x="8" y="4" width="8" height="4" fill="#900000" />
<rect x="16" y="4" width="96" height="8" fill="#FF7054" />
<rect x="112" y="4" width="8" height="4" fill="#900000" />
<rect x="4" y="8" width="8" height="8" fill="#900000" />
<rect x="12" y="8" width="4" height="16" fill="#FF7054" />
<rect x="112" y="8" width="4" height="24" fill="#FF7054" />
<rect x="116" y="8" width="8" height="8" fill="#900000" />
<rect x="0" y="12" width="4" height="104" fill="#900000" />
<rect x="16" y="12" width="28" height="8" fill="#FF7054" />
<rect x="44" y="12" width="8" height="8" fill="#FFFFFF" />
<rect x="52" y="12" width="8" height="4" fill="#FF7054" />
<rect x="60" y="12" width="4" height="12" fill="#F1ABAB" />
<rect x="64" y="12" width="16" height="4" fill="#FF7054" />
<rect x="80" y="12" width="12" height="8" fill="#FFFFFF" />
<rect x="92" y="12" width="20" height="4" fill="#FF7054" />
<rect x="124" y="12" width="4" height="104" fill="#900000" />
<rect x="4" y="16" width="4" height="8" fill="#900000" />
<rect x="8" y="16" width="4" height="12" fill="#FF7054" />
<rect x="52" y="16" width="4" height="4" fill="#FF7054" />
<rect x="56" y="16" width="4" height="4" fill="#F1ABAB" />
<rect x="64" y="16" width="4" height="4" fill="#F1ABAB" />
<rect x="68" y="16" width="12" height="12" fill="#FF7054" />
<rect x="92" y="16" width="8" height="8" fill="#FFFFFF" />
<rect x="100" y="16" width="12" height="4" fill="#FF7054" />
<rect x="116" y="16" width="4" height="16" fill="#FF7054" />
<rect x="120" y="16" width="4" height="8" fill="#900000" />
<rect x="16" y="20" width="16" height="8" fill="#FF7054" />
<rect x="32" y="20" width="8" height="12" fill="#FFFFFF" />
<rect x="40" y="20" width="16" height="4" fill="#F1ABAB" />
<rect x="56" y="20" width="4" height="8" fill="#FF7054" />
<rect x="64" y="20" width="4" height="4" fill="#FF7054" />
<rect x="80" y="20" width="8" height="8" fill="#FF7054" />
<rect x="88" y="20" width="4" height="4" fill="#FFFFFF" />
<rect x="100" y="20" width="4" height="32" fill="#FFFFFF" />
<rect x="104" y="20" width="8" height="8" fill="#FF7054" />
<rect x="4" y="24" width="4" height="8" fill="#FF7054" />
<rect x="12" y="24" width="4" height="16" fill="#F1ABAB" />
<rect x="40" y="24" width="4" height="32" fill="#FF7054" />
<rect x="44" y="24" width="8" height="4" fill="#F1ABAB" />
<rect x="52" y="24" width="4" height="52" fill="#FF7054" />
<rect x="60" y="24" width="8" height="16" fill="#D25050" />
<rect x="88" y="24" width="4" height="8" fill="#FF7054" />
<rect x="92" y="24" width="4" height="4" fill="#F1ABAB" />
<rect x="96" y="24" width="4" height="4" fill="#FFFFFF" />
<rect x="120" y="24" width="4" height="12" fill="#FF7054" />
<rect x="8" y="28" width="4" height="8" fill="#F1ABAB" />
<rect x="16" y="28" width="4" height="12" fill="#F1ABAB" />
<rect x="20" y="28" width="12" height="16" fill="#FF7054" />
<rect x="44" y="28" width="8" height="28" fill="#FF7054" />
<rect x="56" y="28" width="4" height="8" fill="#D25050" />
<rect x="68" y="28" width="4" height="8" fill="#D25050" />
<rect x="72" y="28" width="8" height="4" fill="#FF7054" />
<rect x="80" y="28" width="8" height="16" fill="#D25050" />
<rect x="92" y="28" width="8" height="8" fill="#FF7054" />
<rect x="104" y="28" width="4" height="24" fill="#FFFFFF" />
<rect x="108" y="28" width="4" height="8" fill="#F1ABAB" />
<rect x="4" y="32" width="4" height="88" fill="#900000" />
<rect x="32" y="32" width="8" height="52" fill="#FF7054" />
<rect x="72" y="32" width="4" height="12" fill="#FF7054" />
<rect x="76" y="32" width="4" height="8" fill="#D25050" />
<rect x="88" y="32" width="4" height="20" fill="#D25050" />
<rect x="112" y="32" width="8" height="16" fill="#D25050" />
<rect x="8" y="36" width="4" height="56" fill="#900000" />
<rect x="56" y="36" width="4" height="20" fill="#FF7054" />
<rect x="68" y="36" width="4" height="12" fill="#FF7054" />
<rect x="92" y="36" width="4" height="20" fill="#D25050" />
<rect x="96" y="36" width="4" height="4" fill="#FF7054" />
<rect x="108" y="36" width="4" height="12" fill="#D25050" />
<rect x="120" y="36" width="4" height="8" fill="#D25050" />
<rect x="12" y="40" width="8" height="16" fill="#D25050" />
<rect x="60" y="40" width="8" height="12" fill="#FF7054" />
<rect x="76" y="40" width="4" height="4" fill="#FF7054" />
<rect x="96" y="40" width="4" height="16" fill="#D25050" />
<rect x="20" y="44" width="4" height="8" fill="#D25050" />
<rect x="24" y="44" width="8" height="4" fill="#FF7054" />
<rect x="72" y="44" width="4" height="12" fill="#F1ABAB" />
<rect x="76" y="44" width="4" height="4" fill="#FFFFFF" />
<rect x="80" y="44" width="4" height="4" fill="#FF7054" />
<rect x="84" y="44" width="4" height="4" fill="#D25050" />
<rect x="120" y="44" width="4" height="28" fill="#FF7054" />
<rect x="24" y="48" width="4" height="16" fill="#F1ABAB" />
<rect x="28" y="48" width="4" height="4" fill="#FF7054" />
<rect x="68" y="48" width="4" height="4" fill="#F1ABAB" />
<rect x="76" y="48" width="8" height="12" fill="#F1ABAB" />
<rect x="84" y="48" width="4" height="4" fill="#FF7054" />
<rect x="108" y="48" width="4" height="4" fill="#FF7054" />
<rect x="112" y="48" width="4" height="24" fill="#F1ABAB" />
<rect x="116" y="48" width="4" height="4" fill="#FF7054" />
<rect x="20" y="52" width="4" height="28" fill="#F1ABAB" />
<rect x="28" y="52" width="4" height="4" fill="#F1ABAB" />
<rect x="60" y="52" width="8" height="16" fill="#D25050" />
<rect x="68" y="52" width="4" height="4" fill="#FF7054" />
<rect x="84" y="52" width="4" height="36" fill="#F1ABAB" />
<rect x="88" y="52" width="4" height="12" fill="#FF7054" />
<rect x="100" y="52" width="8" height="28" fill="#FF7054" />
<rect x="108" y="52" width="4" height="24" fill="#F1ABAB" />
<rect x="116" y="52" width="4" height="20" fill="#F1ABAB" />
<rect x="12" y="56" width="4" height="60" fill="#D25050" />
<rect x="16" y="56" width="4" height="24" fill="#F1ABAB" />
<rect x="28" y="56" width="4" height="24" fill="#FF7054" />
<rect x="40" y="56" width="8" height="8" fill="#FFFFFF" />
<rect x="48" y="56" width="4" height="4" fill="#FF7054" />
<rect x="56" y="56" width="4" height="8" fill="#D25050" />
<rect x="68" y="56" width="4" height="8" fill="#D25050" />
<rect x="72" y="56" width="4" height="28" fill="#FF7054" />
<rect x="92" y="56" width="8" height="4" fill="#FF7054" />
<rect x="48" y="60" width="4" height="4" fill="#F1ABAB" />
<rect x="76" y="60" width="4" height="24" fill="#FF7054" />
<rect x="80" y="60" width="4" height="8" fill="#F1ABAB" />
<rect x="92" y="60" width="8" height="16" fill="#FFFFFF" />
<rect x="24" y="64" width="4" height="8" fill="#FF7054" />
<rect x="40" y="64" width="4" height="12" fill="#FF7054" />
<rect x="44" y="64" width="4" height="4" fill="#F1ABAB" />
<rect x="48" y="64" width="4" height="8" fill="#FF7054" />
<rect x="56" y="64" width="4" height="12" fill="#FF7054" />
<rect x="68" y="64" width="4" height="12" fill="#FF7054" />
<rect x="88" y="64" width="4" height="20" fill="#F1ABAB" />
<rect x="44" y="68" width="4" height="4" fill="#FF7054" />
<rect x="60" y="68" width="8" height="4" fill="#FF7054" />
<rect x="80" y="68" width="4" height="12" fill="#FF7054" />
<rect x="24" y="72" width="4" height="12" fill="#F1ABAB" />
<rect x="44" y="72" width="8" height="16" fill="#D25050" />
<rect x="60" y="72" width="4" height="4" fill="#FF7054" />
<rect x="64" y="72" width="4" height="16" fill="#F1ABAB" />
<rect x="112" y="72" width="8" height="40" fill="#D25050" />
<rect x="120" y="72" width="4" height="48" fill="#900000" />
<rect x="40" y="76" width="4" height="28" fill="#D25050" />
<rect x="52" y="76" width="4" height="8" fill="#D25050" />
<rect x="56" y="76" width="8" height="12" fill="#F1ABAB" />
<rect x="68" y="76" width="4" height="8" fill="#F1ABAB" />
<rect x="92" y="76" width="8" height="28" fill="#FF7054" />
<rect x="108" y="76" width="4" height="36" fill="#D25050" />
<rect x="16" y="80" width="8" height="16" fill="#D25050" />
<rect x="28" y="80" width="4" height="12" fill="#F1ABAB" />
<rect x="80" y="80" width="4" height="4" fill="#F1ABAB" />
<rect x="100" y="80" width="4" height="20" fill="#FF7054" />
<rect x="104" y="80" width="4" height="16" fill="#D25050" />
<rect x="24" y="84" width="4" height="8" fill="#D25050" />
<rect x="32" y="84" width="4" height="4" fill="#FF7054" />
<rect x="36" y="84" width="4" height="20" fill="#D25050" />
<rect x="52" y="84" width="4" height="12" fill="#FF7054" />
<rect x="68" y="84" width="4" height="16" fill="#FF7054" />
<rect x="72" y="84" width="8" height="8" fill="#FFFFFF" />
<rect x="80" y="84" width="4" height="20" fill="#FF7054" />
<rect x="88" y="84" width="4" height="4" fill="#FFFFFF" />
<rect x="32" y="88" width="4" height="12" fill="#D25050" />
<rect x="44" y="88" width="4" height="12" fill="#D25050" />
<rect x="48" y="88" width="4" height="8" fill="#FF7054" />
<rect x="56" y="88" width="12" height="12" fill="#FF7054" />
<rect x="84" y="88" width="8" height="24" fill="#FF7054" />
<rect x="8" y="92" width="4" height="8" fill="#D25050" />
<rect x="24" y="92" width="4" height="4" fill="#F1ABAB" />
<rect x="28" y="92" width="4" height="16" fill="#FF7054" />
<rect x="72" y="92" width="8" height="8" fill="#FF7054" />
<rect x="16" y="96" width="4" height="20" fill="#D25050" />
<rect x="20" y="96" width="8" height="8" fill="#FF7054" />
<rect x="48" y="96" width="8" height="12" fill="#F1ABAB" />
<rect x="104" y="96" width="4" height="4" fill="#FF7054" />
<rect x="8" y="100" width="4" height="8" fill="#900000" />
<rect x="32" y="100" width="4" height="8" fill="#FF7054" />
<rect x="44" y="100" width="4" height="4" fill="#F1ABAB" />
<rect x="56" y="100" width="24" height="8" fill="#F1ABAB" />
<rect x="100" y="100" width="8" height="4" fill="#F1ABAB" />
<rect x="20" y="104" width="4" height="12" fill="#D25050" />
<rect x="24" y="104" width="4" height="4" fill="#FF7054" />
<rect x="36" y="104" width="12" height="8" fill="#FF7054" />
<rect x="80" y="104" width="4" height="4" fill="#F1ABAB" />
<rect x="92" y="104" width="4" height="4" fill="#FF7054" />
<rect x="96" y="104" width="8" height="8" fill="#F1ABAB" />
<rect x="104" y="104" width="4" height="8" fill="#D25050" />
<rect x="8" y="108" width="4" height="8" fill="#D25050" />
<rect x="24" y="108" width="12" height="8" fill="#D25050" />
<rect x="48" y="108" width="12" height="8" fill="#D25050" />
<rect x="60" y="108" width="20" height="4" fill="#F1ABAB" />
<rect x="80" y="108" width="4" height="4" fill="#FF7054" />
<rect x="92" y="108" width="4" height="4" fill="#F1ABAB" />
<rect x="36" y="112" width="12" height="4" fill="#D25050" />
<rect x="60" y="112" width="44" height="4" fill="#D25050" />
<rect x="104" y="112" width="8" height="16" fill="#900000" />
<rect x="112" y="112" width="4" height="4" fill="#D25050" />
<rect x="116" y="112" width="4" height="4" fill="#B12E2E" />
<rect x="8" y="116" width="4" height="8" fill="#900000" />
<rect x="12" y="116" width="4" height="4" fill="#B12E2E" />
<rect x="16" y="116" width="56" height="12" fill="#900000" />
<rect x="72" y="116" width="28" height="4" fill="#D25050" />
<rect x="100" y="116" width="4" height="12" fill="#900000" />
<rect x="112" y="116" width="8" height="8" fill="#900000" />
<rect x="12" y="120" width="4" height="8" fill="#900000" />
<rect x="72" y="120" width="28" height="8" fill="#900000" />
<rect x="112" y="124" width="4" height="4" fill="#900000" />
</svg>