<?xml version="1.0" encoding="UTF-8" ?>
<svg version="1.1" width="128" height="128" xmlns="http://www.w3.org/2000/svg" shape-rendering="crispEdges">
<rect x="24" y="0" width="4" height="8" fill="#CC472D" />
<rect x="20" y="4" width="4" height="8" fill="#CC472D" />
<rect x="28" y="4" width="4" height="8" fill="#FF6446" />
<rect x="16" y="8" width="4" height="8" fill="#CC472D" />
<rect x="24" y="8" width="4" height="8" fill="#FF6446" />
<rect x="32" y="8" width="4" height="20" fill="#FF9A9A" />
<rect x="12" y="12" width="4" height="8" fill="#CC472D" />
<rect x="20" y="12" width="4" height="8" fill="#FF6446" />
<rect x="28" y="12" width="4" height="16" fill="#FF9A9A" />
<rect x="36" y="12" width="4" height="16" fill="#FF9A9A" />
<rect x="8" y="16" width="4" height="12" fill="#CC472D" />
<rect x="16" y="16" width="4" height="12" fill="#FF6446" />
<rect x="24" y="16" width="4" height="16" fill="#FF9A9A" />
<rect x="40" y="16" width="4" height="12" fill="#FF6446" />
<rect x="4" y="20" width="4" height="32" fill="#CC472D" />
<rect x="12" y="20" width="4" height="12" fill="#FF6446" />
<rect x="20" y="20" width="4" height="24" fill="#FF9A9A" />
<rect x="44" y="20" width="4" height="20" fill="#FF6446" />
<rect x="48" y="24" width="4" height="12" fill="#FF6446" />
<rect x="8" y="28" width="4" height="52" fill="#FF6446" />
<rect x="16" y="28" width="4" height="44" fill="#FF9A9A" />
<rect x="28" y="28" width="8" height="8" fill="#FF6446" />
<rect x="36" y="28" width="4" height="4" fill="#FFCBCB" />
<rect x="40" y="28" width="4" height="4" fill="#FF9A9A" />
<rect x="52" y="28" width="4" height="4" fill="#FF6446" />
<rect x="12" y="32" width="4" height="32" fill="#FF9A9A" />
<rect x="24" y="32" width="4" height="16" fill="#FF6446" />
<rect x="36" y="32" width="4" height="48" fill="#FF6446" />
<rect x="40" y="32" width="4" height="4" fill="#FFCBCB" />
<rect x="52" y="32" width="8" height="36" fill="#FF9A9A" />
<rect x="0" y="36" width="4" height="36" fill="#CC472D" />
<rect x="28" y="36" width="4" height="8" fill="#FF6446" />
<rect x="32" y="36" width="4" height="4" fill="#FFCBCB" />
<rect x="40" y="36" width="4" height="44" fill="#FF6446" />
<rect x="48" y="36" width="4" height="28" fill="#FF9A9A" />
<rect x="60" y="36" width="4" height="12" fill="#FF9A9A" />
<rect x="32" y="40" width="4" height="8" fill="#FF6446" />
<rect x="44" y="40" width="4" height="20" fill="#FF9A9A" />
<rect x="64" y="40" width="4" height="4" fill="#FF9A9A" />
<rect x="20" y="44" width="4" height="4" fill="#FF6446" />
<rect x="28" y="44" width="4" height="4" fill="#FF9A9A" />
<rect x="64" y="44" width="8" height="20" fill="#FFCBCB" />
<rect x="20" y="48" width="4" height="32" fill="#FF9A9A" />
<rect x="24" y="48" width="12" height="8" fill="#FFCBCB" />
<rect x="60" y="48" width="4" height="12" fill="#FFCBCB" />
<rect x="72" y="48" width="4" height="20" fill="#FFCBCB" />
<rect x="4" y="52" width="4" height="12" fill="#FF6446" />
<rect x="76" y="52" width="4" height="16" fill="#FFCBCB" />
<rect x="24" y="56" width="12" height="4" fill="#FF6446" />
<rect x="80" y="56" width="4" height="8" fill="#FFCBCB" />
<rect x="24" y="60" width="4" height="24" fill="#FF9A9A" />
<rect x="28" y="60" width="8" height="4" fill="#FF6446" />
<rect x="44" y="60" width="4" height="16" fill="#FF6446" />
<rect x="60" y="60" width="4" height="16" fill="#FF9A9A" />
<rect x="84" y="60" width="4" height="24" fill="#FF9A9A" />
<rect x="4" y="64" width="4" height="20" fill="#CC472D" />
<rect x="12" y="64" width="4" height="20" fill="#FF6446" />
<rect x="28" y="64" width="4" height="28" fill="#FF9A9A" />
<rect x="32" y="64" width="4" height="12" fill="#FF6446" />
<rect x="48" y="64" width="4" height="8" fill="#FF6446" />
<rect x="64" y="64" width="4" height="16" fill="#FF9A9A" />
<rect x="68" y="64" width="4" height="4" fill="#FFCBCB" />
<rect x="80" y="64" width="4" height="20" fill="#FF9A9A" />
<rect x="88" y="64" width="4" height="16" fill="#FF9A9A" />
<rect x="52" y="68" width="4" height="4" fill="#FF6446" />
<rect x="56" y="68" width="4" height="4" fill="#FF9A9A" />
<rect x="68" y="68" width="12" height="16" fill="#FF9A9A" />
<rect x="92" y="68" width="4" height="8" fill="#FF9A9A" />
<rect x="16" y="72" width="4" height="16" fill="#FF6446" />
<rect x="48" y="72" width="8" height="4" fill="#FFCBCB" />
<rect x="56" y="72" width="4" height="24" fill="#FF6446" />
<rect x="96" y="72" width="4" height="12" fill="#FF6446" />
<rect x="32" y="76" width="4" height="20" fill="#FF9A9A" />
<rect x="44" y="76" width="4" height="4" fill="#FFCBCB" />
<rect x="48" y="76" width="4" height="4" fill="#FFE7E7" />
<rect x="52" y="76" width="4" height="4" fill="#FFCBCB" />
<rect x="60" y="76" width="4" height="20" fill="#FF6446" />
<rect x="92" y="76" width="4" height="8" fill="#FF6446" />
<rect x="100" y="76" width="4" height="12" fill="#FF6446" />
<rect x="8" y="80" width="4" height="8" fill="#CC472D" />
<rect x="20" y="80" width="4" height="16" fill="#FF6446" />
<rect x="36" y="80" width="12" height="20" fill="#FF9A9A" />
<rect x="48" y="80" width="4" height="4" fill="#FFCBCB" />
<rect x="52" y="80" width="4" height="16" fill="#FF6446" />
<rect x="64" y="80" width="4" height="20" fill="#FF6446" />
<rect x="88" y="80" width="4" height="12" fill="#FF6446" />
<rect x="104" y="80" width="4" height="8" fill="#FF6446" />
<rect x="12" y="84" width="4" height="12" fill="#CC472D" />
<rect x="24" y="84" width="4" height="16" fill="#FF6446" />
<rect x="48" y="84" width="4" height="8" fill="#FF6446" />
<rect x="68" y="84" width="20" height="8" fill="#FF6446" />
<rect x="92" y="84" width="4" height="4" fill="#FFCBCB" />
<rect x="96" y="84" width="4" height="4" fill="#FF9A9A" />
<rect x="108" y="84" width="4" height="4" fill="#FF6446" />
<rect x="16" y="88" width="4" height="12" fill="#CC472D" />
<rect x="92" y="88" width="4" height="16" fill="#FF6446" />
<rect x="96" y="88" width="4" height="4" fill="#FFCBCB" />
<rect x="100" y="88" width="16" height="12" fill="#FF9A9A" />
<rect x="28" y="92" width="4" height="12" fill="#FF6446" />
<rect x="48" y="92" width="4" height="16" fill="#FF9A9A" />
<rect x="68" y="92" width="4" height="12" fill="#FF6446" />
<rect x="72" y="92" width="8" height="12" fill="#FFCBCB" />
<rect x="80" y="92" width="8" height="4" fill="#FF6446" />
<rect x="88" y="92" width="4" height="4" fill="#FFCBCB" />
<rect x="96" y="92" width="4" height="8" fill="#FF6446" />
<rect x="116" y="92" width="4" height="4" fill="#FF9A9A" />
<rect x="20" y="96" width="4" height="12" fill="#CC472D" />
<rect x="32" y="96" width="4" height="12" fill="#FF6446" />
<rect x="52" y="96" width="12" height="12" fill="#FF9A9A" />
<rect x="80" y="96" width="4" height="4" fill="#FF9A9A" />
<rect x="84" y="96" width="8" height="8" fill="#FF6446" />
<rect x="116" y="96" width="8" height="4" fill="#FF6446" />
<rect x="24" y="100" width="4" height="8" fill="#CC472D" />
<rect x="36" y="100" width="8" height="8" fill="#FF6446" />
<rect x="44" y="100" width="4" height="4" fill="#FF9A9A" />
<rect x="64" y="100" width="4" height="16" fill="#FF9A9A" />
<rect x="80" y="100" width="4" height="8" fill="#FF6446" />
<rect x="96" y="100" width="16" height="4" fill="#FF9A9A" />
<rect x="112" y="100" width="8" height="4" fill="#FF6446" />
<rect x="120" y="100" width="8" height="4" fill="#CC472D" />
<rect x="28" y="104" width="4" height="8" fill="#CC472D" />
<rect x="44" y="104" width="4" height="12" fill="#FF6446" />
<rect x="68" y="104" width="12" height="12" fill="#FF9A9A" />
<rect x="84" y="104" width="24" height="4" fill="#FF9A9A" />
<rect x="108" y="104" width="8" height="4" fill="#FF6446" />
<rect x="116" y="104" width="8" height="4" fill="#CC472D" />
<rect x="32" y="108" width="8" height="8" fill="#CC472D" />
<rect x="40" y="108" width="4" height="4" fill="#FF6446" />
<rect x="48" y="108" width="8" height="12" fill="#FF6446" />
<rect x="56" y="108" width="8" height="4" fill="#FF9A9A" />
<rect x="80" y="108" width="20" height="4" fill="#FF9A9A" />
<rect x="100" y="108" width="12" height="4" fill="#FF6446" />
<rect x="112" y="108" width="8" height="4" fill="#CC472D" />
<rect x="40" y="112" width="4" height="8" fill="#CC472D" />
<rect x="56" y="112" width="8" height="8" fill="#FF6446" />
<rect x="80" y="112" width="16" height="4" fill="#FF9A9A" />
<rect x="96" y="112" width="12" height="4" fill="#FF6446" />
<rect x="108" y="112" width="8" height="4" fill="#CC472D" />
<rect x="44" y="116" width="4" height="8" fill="#CC472D" />
<rect x="64" y="116" width="36" height="4" fill="#FF6446" />
<rect x="100" y="116" width="12" height="4" fill="#CC472D" />
<rect x="48" y="120" width="16" height="4" fill="#CC472D" />
<rect x="64" y="120" width="12" height="4" fill="#FF6446" />
<rect x="76" y="120" width="32" height="4" fill="#CC472D" />
<rect x="56" y="124" width="36" height="4" fill="#CC472D" />
</svg>