<?xml version="1.0" encoding="UTF-8" ?>
<svg version="1.1" width="128" height="128" xmlns="http://www.w3.org/2000/svg" shape-rendering="crispEdges">
<rect x="60" y="4" width="12" height="8" fill="#146800" />
<rect x="56" y="8" width="4" height="16" fill="#146800" />
<rect x="24" y="12" width="32" height="4" fill="#146800" />
<rect x="60" y="12" width="8" height="20" fill="#31851D" />
<rect x="68" y="12" width="4" height="12" fill="#146800" />
<rect x="24" y="16" width="8" height="4" fill="#721300" />
<rect x="32" y="16" width="8" height="4" fill="#146800" />
<rect x="40" y="16" width="12" height="4" fill="#31851D" />
<rect x="52" y="16" width="4" height="4" fill="#146800" />
<rect x="72" y="16" width="32" height="4" fill="#721300" />
<rect x="12" y="20" width="12" height="4" fill="#721300" />
<rect x="24" y="20" width="16" height="12" fill="#FF5331" />
<rect x="40" y="20" width="4" height="4" fill="#146800" />
<rect x="44" y="20" width="12" height="4" fill="#31851D" />
<rect x="72" y="20" width="4" height="12" fill="#31851D" />
<rect x="76" y="20" width="8" height="4" fill="#8BD879" />
<rect x="84" y="20" width="8" height="4" fill="#31851D" />
<rect x="92" y="20" width="12" height="4" fill="#FF5331" />
<rect x="104" y="20" width="8" height="4" fill="#721300" />
<rect x="8" y="24" width="4" height="4" fill="#721300" />
<rect x="12" y="24" width="12" height="16" fill="#FF5331" />
<rect x="40" y="24" width="4" height="4" fill="#FF5331" />
<rect x="44" y="24" width="8" height="4" fill="#146800" />
<rect x="52" y="24" width="8" height="16" fill="#31851D" />
<rect x="68" y="24" width="4" height="16" fill="#31851D" />
<rect x="76" y="24" width="8" height="4" fill="#31851D" />
<rect x="84" y="24" width="8" height="4" fill="#8BD879" />
<rect x="92" y="24" width="4" height="8" fill="#146800" />
<rect x="96" y="24" width="4" height="20" fill="#FF5331" />
<rect x="100" y="24" width="12" height="4" fill="#FF6446" />
<rect x="112" y="24" width="4" height="4" fill="#721300" />
<rect x="4" y="28" width="4" height="4" fill="#721300" />
<rect x="8" y="28" width="4" height="32" fill="#FF5331" />
<rect x="40" y="28" width="4" height="4" fill="#146800" />
<rect x="44" y="28" width="8" height="12" fill="#31851D" />
<rect x="76" y="28" width="4" height="4" fill="#31851D" />
<rect x="80" y="28" width="12" height="4" fill="#146800" />
<rect x="100" y="28" width="4" height="16" fill="#FF5331" />
<rect x="104" y="28" width="12" height="4" fill="#FF6446" />
<rect x="116" y="28" width="4" height="4" fill="#721300" />
<rect x="0" y="32" width="4" height="48" fill="#721300" />
<rect x="4" y="32" width="4" height="48" fill="#E42500" />
<rect x="24" y="32" width="4" height="8" fill="#E42500" />
<rect x="28" y="32" width="4" height="8" fill="#146800" />
<rect x="32" y="32" width="12" height="8" fill="#31851D" />
<rect x="60" y="32" width="8" height="8" fill="#8BD879" />
<rect x="72" y="32" width="12" height="8" fill="#146800" />
<rect x="84" y="32" width="12" height="20" fill="#FF5331" />
<rect x="104" y="32" width="8" height="20" fill="#FF5331" />
<rect x="112" y="32" width="8" height="12" fill="#FF6446" />
<rect x="120" y="32" width="4" height="12" fill="#721300" />
<rect x="12" y="40" width="4" height="4" fill="#FF5331" />
<rect x="16" y="40" width="12" height="8" fill="#146800" />
<rect x="28" y="40" width="4" height="4" fill="#31851D" />
<rect x="32" y="40" width="24" height="4" fill="#146800" />
<rect x="56" y="40" width="12" height="4" fill="#31851D" />
<rect x="68" y="40" width="4" height="4" fill="#8BD879" />
<rect x="72" y="40" width="4" height="4" fill="#146800" />
<rect x="76" y="40" width="8" height="4" fill="#FF5331" />
<rect x="12" y="44" width="4" height="56" fill="#E42500" />
<rect x="28" y="44" width="8" height="4" fill="#146800" />
<rect x="36" y="44" width="8" height="24" fill="#E42500" />
<rect x="44" y="44" width="12" height="8" fill="#FF5331" />
<rect x="56" y="44" width="12" height="4" fill="#146800" />
<rect x="68" y="44" width="8" height="4" fill="#31851D" />
<rect x="76" y="44" width="4" height="8" fill="#146800" />
<rect x="80" y="44" width="4" height="8" fill="#FF5331" />
<rect x="96" y="44" width="8" height="20" fill="#FFA28F" />
<rect x="112" y="44" width="4" height="40" fill="#FF5331" />
<rect x="116" y="44" width="8" height="8" fill="#FF6446" />
<rect x="124" y="44" width="4" height="32" fill="#721300" />
<rect x="16" y="48" width="20" height="20" fill="#E42500" />
<rect x="56" y="48" width="16" height="16" fill="#FF5331" />
<rect x="72" y="48" width="4" height="4" fill="#146800" />
<rect x="44" y="52" width="4" height="12" fill="#E42500" />
<rect x="48" y="52" width="8" height="48" fill="#FF5331" />
<rect x="72" y="52" width="8" height="4" fill="#FF5331" />
<rect x="80" y="52" width="16" height="16" fill="#FFA28F" />
<rect x="104" y="52" width="8" height="12" fill="#FFA28F" />
<rect x="116" y="52" width="4" height="12" fill="#FF5331" />
<rect x="120" y="52" width="4" height="20" fill="#FF6446" />
<rect x="72" y="56" width="8" height="12" fill="#FFA28F" />
<rect x="8" y="60" width="4" height="32" fill="#E42500" />
<rect x="44" y="64" width="4" height="28" fill="#FF5331" />
<rect x="56" y="64" width="16" height="16" fill="#FF6446" />
<rect x="96" y="64" width="4" height="4" fill="#FFA28F" />
<rect x="100" y="64" width="4" height="4" fill="#FF6446" />
<rect x="104" y="64" width="8" height="16" fill="#FF5331" />
<rect x="116" y="64" width="4" height="8" fill="#FF6446" />
<rect x="16" y="68" width="8" height="36" fill="#E42500" />
<rect x="24" y="68" width="20" height="8" fill="#FF5331" />
<rect x="72" y="68" width="4" height="16" fill="#FF6446" />
<rect x="76" y="68" width="16" height="4" fill="#FFA28F" />
<rect x="92" y="68" width="4" height="4" fill="#FF765B" />
<rect x="96" y="68" width="4" height="8" fill="#FF6446" />
<rect x="100" y="68" width="4" height="12" fill="#FF5331" />
<rect x="76" y="72" width="20" height="4" fill="#FF6446" />
<rect x="116" y="72" width="4" height="8" fill="#FF5331" />
<rect x="120" y="72" width="4" height="12" fill="#721300" />
<rect x="24" y="76" width="4" height="32" fill="#E42500" />
<rect x="28" y="76" width="16" height="4" fill="#FF5331" />
<rect x="76" y="76" width="16" height="8" fill="#FF6446" />
<rect x="92" y="76" width="8" height="4" fill="#FF5331" />
<rect x="4" y="80" width="4" height="12" fill="#721300" />
<rect x="28" y="80" width="4" height="28" fill="#E42500" />
<rect x="32" y="80" width="12" height="8" fill="#FF5331" />
<rect x="56" y="80" width="4" height="28" fill="#FF5331" />
<rect x="60" y="80" width="12" height="4" fill="#FF6446" />
<rect x="92" y="80" width="20" height="8" fill="#FFA28F" />
<rect x="116" y="80" width="4" height="4" fill="#FF6446" />
<rect x="60" y="84" width="28" height="8" fill="#FF5331" />
<rect x="88" y="84" width="4" height="20" fill="#FFA28F" />
<rect x="112" y="84" width="4" height="8" fill="#FF6446" />
<rect x="116" y="84" width="4" height="8" fill="#721300" />
<rect x="32" y="88" width="8" height="24" fill="#E42500" />
<rect x="40" y="88" width="4" height="4" fill="#FF5331" />
<rect x="92" y="88" width="12" height="4" fill="#FFA28F" />
<rect x="104" y="88" width="8" height="12" fill="#FF6446" />
<rect x="8" y="92" width="4" height="8" fill="#721300" />
<rect x="40" y="92" width="8" height="24" fill="#E42500" />
<rect x="60" y="92" width="16" height="8" fill="#FF5331" />
<rect x="76" y="92" width="12" height="12" fill="#FFA28F" />
<rect x="92" y="92" width="8" height="8" fill="#FFA28F" />
<rect x="100" y="92" width="4" height="8" fill="#FF5331" />
<rect x="112" y="92" width="4" height="8" fill="#721300" />
<rect x="12" y="100" width="4" height="4" fill="#721300" />
<rect x="48" y="100" width="4" height="16" fill="#E42500" />
<rect x="52" y="100" width="4" height="8" fill="#FF5331" />
<rect x="60" y="100" width="12" height="4" fill="#FF5331" />
<rect x="72" y="100" width="4" height="12" fill="#FFA28F" />
<rect x="92" y="100" width="4" height="4" fill="#FFA28F" />
<rect x="96" y="100" width="12" height="4" fill="#FF6446" />
<rect x="108" y="100" width="4" height="4" fill="#721300" />
<rect x="16" y="104" width="8" height="4" fill="#721300" />
<rect x="60" y="104" width="8" height="4" fill="#FF5331" />
<rect x="68" y="104" width="4" height="8" fill="#FFA28F" />
<rect x="76" y="104" width="8" height="4" fill="#FFA28F" />
<rect x="84" y="104" width="4" height="12" fill="#FF6446" />
<rect x="88" y="104" width="4" height="4" fill="#FF5331" />
<rect x="92" y="104" width="12" height="4" fill="#FF6446" />
<rect x="104" y="104" width="4" height="4" fill="#721300" />
<rect x="24" y="108" width="8" height="4" fill="#721300" />
<rect x="52" y="108" width="8" height="8" fill="#E42500" />
<rect x="60" y="108" width="8" height="4" fill="#FFA28F" />
<rect x="76" y="108" width="8" height="8" fill="#FF6446" />
<rect x="88" y="108" width="4" height="4" fill="#FF6446" />
<rect x="92" y="108" width="12" height="4" fill="#721300" />
<rect x="32" y="112" width="8" height="4" fill="#721300" />
<rect x="60" y="112" width="16" height="8" fill="#FF6446" />
<rect x="88" y="112" width="4" height="4" fill="#721300" />
<rect x="40" y="116" width="16" height="4" fill="#721300" />
<rect x="56" y="116" width="4" height="4" fill="#E42500" />
<rect x="76" y="116" width="4" height="4" fill="#FF6446" />
<rect x="80" y="116" width="8" height="4" fill="#721300" />
<rect x="56" y="120" width="24" height="4" fill="#721300" />
</svg>