<?xml version="1.0" encoding="UTF-8" ?>
<svg version="1.1" width="196" height="100" xmlns="http://www.w3.org/2000/svg" shape-rendering="crispEdges">
<rect x="8" y="0" width="180" height="8" fill="#D68F5F" />
<rect x="0" y="4" width="8" height="92" fill="#D68F5F" />
<rect x="188" y="4" width="8" height="92" fill="#D68F5F" />
<rect x="8" y="8" width="8" height="4" fill="#D68F5F" />
<rect x="16" y="8" width="164" height="4" fill="#E17866" />
<rect x="180" y="8" width="8" height="4" fill="#D68F5F" />
<rect x="8" y="12" width="4" height="88" fill="#D68F5F" />
<rect x="12" y="12" width="16" height="4" fill="#E17866" />
<rect x="28" y="12" width="144" height="4" fill="#DAD6AE" />
<rect x="172" y="12" width="12" height="4" fill="#E17866" />
<rect x="184" y="12" width="4" height="88" fill="#D68F5F" />
<rect x="12" y="16" width="8" height="72" fill="#E17866" />
<rect x="20" y="16" width="12" height="4" fill="#DAD6AE" />
<rect x="32" y="16" width="28" height="12" fill="#FEA899" />
<rect x="60" y="16" width="116" height="4" fill="#DAD6AE" />
<rect x="176" y="16" width="8" height="72" fill="#E17866" />
<rect x="20" y="20" width="8" height="64" fill="#DAD6AE" />
<rect x="28" y="20" width="4" height="12" fill="#FEA899" />
<rect x="60" y="20" width="4" height="12" fill="#FEA899" />
<rect x="64" y="20" width="84" height="4" fill="#DAD6AE" />
<rect x="148" y="20" width="20" height="32" fill="#FEA899" />
<rect x="168" y="20" width="8" height="4" fill="#DAD6AE" />
<rect x="64" y="24" width="80" height="4" fill="#DAD6AE" />
<rect x="144" y="24" width="4" height="44" fill="#FEA899" />
<rect x="168" y="24" width="4" height="44" fill="#FEA899" />
<rect x="172" y="24" width="4" height="60" fill="#DAD6AE" />
<rect x="32" y="28" width="16" height="4" fill="#FEA899" />
<rect x="48" y="28" width="4" height="4" fill="#CE5A46" />
<rect x="52" y="28" width="4" height="28" fill="#FEA899" />
<rect x="56" y="28" width="4" height="4" fill="#CE5A46" />
<rect x="64" y="28" width="8" height="4" fill="#DAD6AE" />
<rect x="72" y="28" width="4" height="4" fill="#CE5A46" />
<rect x="76" y="28" width="4" height="40" fill="#DAD6AE" />
<rect x="80" y="28" width="16" height="4" fill="#CE5A46" />
<rect x="96" y="28" width="24" height="4" fill="#DAD6AE" />
<rect x="120" y="28" width="4" height="44" fill="#CE5A46" />
<rect x="124" y="28" width="20" height="20" fill="#DAD6AE" />
<rect x="28" y="32" width="12" height="4" fill="#CE5A46" />
<rect x="40" y="32" width="12" height="4" fill="#FEA899" />
<rect x="56" y="32" width="4" height="16" fill="#FEA899" />
<rect x="60" y="32" width="4" height="4" fill="#CE5A46" />
<rect x="64" y="32" width="4" height="4" fill="#DAD6AE" />
<rect x="68" y="32" width="4" height="4" fill="#CE5A46" />
<rect x="72" y="32" width="4" height="16" fill="#DAD6AE" />
<rect x="80" y="32" width="8" height="4" fill="#DAD6AE" />
<rect x="88" y="32" width="4" height="4" fill="#FEA899" />
<rect x="92" y="32" width="4" height="4" fill="#CE5A46" />
<rect x="96" y="32" width="8" height="4" fill="#FEA899" />
<rect x="104" y="32" width="8" height="4" fill="#CE5A46" />
<rect x="112" y="32" width="8" height="4" fill="#FEA899" />
<rect x="28" y="36" width="4" height="20" fill="#CE5A46" />
<rect x="32" y="36" width="8" height="8" fill="#FEA899" />
<rect x="40" y="36" width="4" height="8" fill="#CE5A46" />
<rect x="44" y="36" width="4" height="20" fill="#FEA899" />
<rect x="48" y="36" width="4" height="16" fill="#CE5A46" />
<rect x="60" y="36" width="4" height="8" fill="#FEA899" />
<rect x="64" y="36" width="4" height="8" fill="#CE5A46" />
<rect x="68" y="36" width="4" height="8" fill="#DAD6AE" />
<rect x="80" y="36" width="4" height="8" fill="#DAD6AE" />
<rect x="84" y="36" width="4" height="4" fill="#FEA899" />
<rect x="88" y="36" width="4" height="4" fill="#CE5A46" />
<rect x="92" y="36" width="8" height="12" fill="#FEA899" />
<rect x="100" y="36" width="4" height="12" fill="#CE5A46" />
<rect x="104" y="36" width="8" height="4" fill="#FEA899" />
<rect x="112" y="36" width="4" height="8" fill="#CE5A46" />
<rect x="116" y="36" width="4" height="32" fill="#FEA899" />
<rect x="84" y="40" width="4" height="4" fill="#CE5A46" />
<rect x="88" y="40" width="4" height="8" fill="#FEA899" />
<rect x="104" y="40" width="8" height="4" fill="#CE5A46" />
<rect x="32" y="44" width="8" height="4" fill="#CE5A46" />
<rect x="40" y="44" width="4" height="12" fill="#FEA899" />
<rect x="60" y="44" width="4" height="4" fill="#CE5A46" />
<rect x="64" y="44" width="4" height="20" fill="#DAD6AE" />
<rect x="68" y="44" width="4" height="4" fill="#CE5A46" />
<rect x="80" y="44" width="4" height="8" fill="#CE5A46" />
<rect x="84" y="44" width="4" height="4" fill="#FEA899" />
<rect x="104" y="44" width="12" height="4" fill="#FEA899" />
<rect x="32" y="48" width="8" height="8" fill="#FEA899" />
<rect x="56" y="48" width="4" height="4" fill="#CE5A46" />
<rect x="60" y="48" width="4" height="4" fill="#FEA899" />
<rect x="68" y="48" width="4" height="16" fill="#DAD6AE" />
<rect x="72" y="48" width="4" height="4" fill="#CE5A46" />
<rect x="84" y="48" width="12" height="4" fill="#CE5A46" />
<rect x="96" y="48" width="8" height="8" fill="#FEA899" />
<rect x="104" y="48" width="8" height="8" fill="#CE5A46" />
<rect x="112" y="48" width="4" height="8" fill="#FEA899" />
<rect x="124" y="48" width="16" height="4" fill="#DAD6AE" />
<rect x="140" y="48" width="4" height="4" fill="#CE5A46" />
<rect x="48" y="52" width="4" height="4" fill="#FEA899" />
<rect x="56" y="52" width="4" height="4" fill="#FEA899" />
<rect x="60" y="52" width="4" height="12" fill="#DAD6AE" />
<rect x="72" y="52" width="4" height="12" fill="#DAD6AE" />
<rect x="80" y="52" width="4" height="36" fill="#DAD6AE" />
<rect x="84" y="52" width="12" height="12" fill="#FEA899" />
<rect x="124" y="52" width="4" height="4" fill="#DAD6AE" />
<rect x="128" y="52" width="4" height="4" fill="#CE5A46" />
<rect x="132" y="52" width="4" height="36" fill="#DAD6AE" />
<rect x="136" y="52" width="4" height="4" fill="#CE5A46" />
<rect x="140" y="52" width="4" height="36" fill="#DAD6AE" />
<rect x="148" y="52" width="4" height="12" fill="#FEA899" />
<rect x="152" y="52" width="8" height="4" fill="#CE5A46" />
<rect x="160" y="52" width="8" height="4" fill="#FEA899" />
<rect x="28" y="56" width="32" height="8" fill="#DAD6AE" />
<rect x="96" y="56" width="4" height="12" fill="#FEA899" />
<rect x="100" y="56" width="4" height="12" fill="#CE5A46" />
<rect x="104" y="56" width="8" height="4" fill="#FEA899" />
<rect x="112" y="56" width="4" height="8" fill="#CE5A46" />
<rect x="124" y="56" width="4" height="4" fill="#CE5A46" />
<rect x="128" y="56" width="4" height="32" fill="#DAD6AE" />
<rect x="136" y="56" width="4" height="4" fill="#DAD6AE" />
<rect x="152" y="56" width="8" height="4" fill="#FEA899" />
<rect x="160" y="56" width="4" height="16" fill="#CE5A46" />
<rect x="164" y="56" width="4" height="16" fill="#FEA899" />
<rect x="104" y="60" width="8" height="4" fill="#CE5A46" />
<rect x="124" y="60" width="4" height="28" fill="#DAD6AE" />
<rect x="136" y="60" width="4" height="12" fill="#CE5A46" />
<rect x="152" y="60" width="8" height="4" fill="#CE5A46" />
<rect x="28" y="64" width="16" height="4" fill="#DAD6AE" />
<rect x="44" y="64" width="32" height="16" fill="#FEA899" />
<rect x="84" y="64" width="4" height="24" fill="#DAD6AE" />
<rect x="88" y="64" width="8" height="4" fill="#FEA899" />
<rect x="104" y="64" width="12" height="4" fill="#FEA899" />
<rect x="148" y="64" width="4" height="4" fill="#CE5A46" />
<rect x="152" y="64" width="8" height="4" fill="#FEA899" />
<rect x="28" y="68" width="12" height="20" fill="#DAD6AE" />
<rect x="40" y="68" width="4" height="8" fill="#FEA899" />
<rect x="76" y="68" width="4" height="8" fill="#FEA899" />
<rect x="88" y="68" width="16" height="20" fill="#DAD6AE" />
<rect x="104" y="68" width="8" height="4" fill="#CE5A46" />
<rect x="112" y="68" width="8" height="20" fill="#DAD6AE" />
<rect x="144" y="68" width="4" height="20" fill="#DAD6AE" />
<rect x="148" y="68" width="4" height="4" fill="#FEA899" />
<rect x="152" y="68" width="8" height="4" fill="#CE5A46" />
<rect x="168" y="68" width="4" height="16" fill="#DAD6AE" />
<rect x="104" y="72" width="8" height="16" fill="#DAD6AE" />
<rect x="120" y="72" width="4" height="16" fill="#DAD6AE" />
<rect x="136" y="72" width="4" height="16" fill="#DAD6AE" />
<rect x="148" y="72" width="20" height="16" fill="#DAD6AE" />
<rect x="40" y="76" width="4" height="12" fill="#DAD6AE" />
<rect x="76" y="76" width="4" height="12" fill="#DAD6AE" />
<rect x="44" y="80" width="32" height="8" fill="#DAD6AE" />
<rect x="20" y="84" width="8" height="8" fill="#E17866" />
<rect x="168" y="84" width="8" height="8" fill="#E17866" />
<rect x="12" y="88" width="8" height="12" fill="#D68F5F" />
<rect x="28" y="88" width="140" height="4" fill="#E17866" />
<rect x="176" y="88" width="8" height="12" fill="#D68F5F" />
<rect x="20" y="92" width="156" height="8" fill="#D68F5F" />
</svg>